<svg width="176" height="70" viewBox="0 0 176 70" fill="none" xmlns="http://www.w3.org/2000/svg">
<g id="Frame" clip-path="url(#clip0_472_11941)">
<g id="Group">
<path id="Vector" d="M2.72998 36.2174V0H27.5431V6.08696H10.2949V14.6087H25.4249V20.6957H10.2949V36.2174H2.72998ZM33.5951 6.3913V0H40.5548V6.3913H33.5951ZM33.5951 36.2174V10.0435H40.5548V36.5217H33.5951V36.2174ZM71.4199 36.2174H64.4601V22.8261C64.4601 20.087 64.4601 18.2609 64.1575 17.3478C63.8549 16.4348 63.2497 15.8261 62.6445 15.5217C62.0393 15.2174 61.1315 14.913 60.2237 14.913C59.0133 14.913 57.8029 15.2174 56.8951 15.8261C55.9874 16.4348 55.3822 17.3478 55.0796 18.5652C54.777 19.7826 54.4744 21.6087 54.4744 24.6522V36.5217H47.5146V10.0435H53.8692V14C56.29 10.9565 59.0133 9.43478 62.6445 9.43478C64.1575 9.43478 65.6705 9.73913 66.8809 10.3478C68.0913 10.9565 68.9991 11.5652 69.6043 12.4783C70.2095 13.3913 70.8147 14.3043 70.8147 15.5217C71.1173 16.7391 71.1173 18.2609 71.1173 20.087V36.2174H71.4199ZM76.8667 22.8261C76.8667 20.3913 77.4719 18.2609 78.6823 16.1304C79.8927 14 81.4056 12.1739 83.5238 11.2609C85.642 10.0435 88.0628 9.43478 90.4836 9.43478C94.4174 9.43478 97.746 10.6522 100.167 13.3913C102.588 16.1304 104.101 19.1739 104.101 23.1304C104.101 27.087 102.89 30.4348 100.167 33.1739C97.746 35.913 94.4174 37.1304 90.4836 37.1304C88.0628 37.1304 85.9446 36.5217 83.5238 35.6087C81.4056 34.3913 79.5901 32.8696 78.6823 30.7391C77.4719 28.3043 76.8667 25.8696 76.8667 22.8261ZM84.129 23.1304C84.129 25.8696 84.7342 27.6957 85.9446 29.2174C87.155 30.7391 88.668 31.3478 90.4836 31.3478C92.2992 31.3478 93.8122 30.7391 95.0226 29.2174C96.233 27.6957 96.8382 25.8696 96.8382 23.1304C96.8382 20.6957 96.233 18.5652 95.0226 17.0435C93.8122 15.8261 92.2992 15.2174 90.4836 15.2174C88.668 15.2174 87.155 15.8261 85.9446 17.3478C84.7342 18.5652 84.129 20.6957 84.129 23.1304ZM109.245 36.2174V0H116.204V36.2174H109.245ZM138.597 28L145.557 29.2174C144.649 31.6522 143.136 33.7826 141.32 35C139.505 36.2174 137.084 37.1304 134.058 37.1304C129.519 37.1304 126.19 35.6087 124.072 32.5652C122.256 30.1304 121.349 27.087 121.349 23.4348C121.349 19.1739 122.559 15.5217 124.677 13.087C126.795 10.6522 129.821 9.43478 133.15 9.43478C137.084 9.43478 140.11 10.6522 142.228 13.3913C144.346 16.1304 145.557 20.087 145.557 25.2609H128.308C128.308 27.3913 128.914 28.913 130.124 30.1304C131.334 31.3478 132.545 31.9565 134.058 31.9565C135.268 31.9565 136.176 31.6522 136.781 31.0435C137.689 30.1304 138.294 29.2174 138.597 28ZM138.899 21C138.899 18.8696 138.294 17.3478 137.386 16.4348C136.479 15.5217 135.268 14.913 133.755 14.913C132.242 14.913 131.032 15.5217 130.124 16.4348C129.216 17.6522 128.611 19.1739 128.611 21H138.899ZM148.28 36.2174L157.661 22.5217L148.583 9.73913H157.055L161.594 17.0435L166.436 10.0435H174.606L165.831 22.5217L175.514 36.5217H167.041L161.594 28.3043L156.148 36.5217H148.28V36.2174Z" fill="#00AEEF"/>
<path id="Vector_2" d="M13.624 62.087L16.9526 63.3043C16.3474 65.4348 15.4396 67.2609 14.2292 68.1739C13.3214 69.3913 11.5058 70 9.69018 70C7.26939 70 5.4538 69.087 3.94081 67.2609C2.42782 65.4348 1.52002 63 1.52002 59.6522C1.52002 56.3043 2.42782 53.5652 3.94081 51.7391C5.4538 49.913 7.57199 49 9.99278 49C12.111 49 13.9266 49.6087 15.137 51.1304C16.0448 52.0435 16.65 53.2609 16.9526 54.7826L13.3214 55.6956C13.3214 54.7826 12.7162 54.1739 12.111 53.5652C11.5058 52.9565 10.598 52.6522 9.69018 52.6522C8.47979 52.6522 7.26939 53.2609 6.3616 54.1739C5.4538 55.3913 5.1512 56.913 5.1512 59.3478C5.1512 61.7826 5.4538 63.6087 6.3616 64.8261C7.26939 66.0435 8.17719 66.3478 9.38759 66.3478C10.2954 66.3478 11.2032 66.0435 11.8084 65.4348C12.7162 64.8261 13.3214 63.6087 13.624 62.087ZM22.7019 59.3478L19.6759 58.7391C19.9785 57.2174 20.5837 56.3043 21.4915 55.6956C22.0967 55.087 23.6097 54.7826 25.1227 54.7826C26.6357 54.7826 27.8461 55.087 28.4513 55.3913C29.0565 55.6957 29.6617 56.3043 29.9643 56.913C30.2669 57.5217 30.5695 58.7391 30.5695 60.2609V64.8261C30.5695 66.0435 30.5695 66.9565 30.8721 67.5652C30.8721 68.1739 31.1747 68.7826 31.4773 69.3913H27.8461C27.8461 69.087 27.5435 68.7826 27.5435 68.1739C27.5435 67.8696 27.5435 67.8696 27.5435 67.8696C26.9383 68.4783 26.3331 69.087 25.7279 69.3913C24.8201 69.6956 24.2149 70 23.6097 70C22.3993 70 21.1889 69.6957 20.5837 68.7826C19.6759 67.8696 19.3733 66.9565 19.3733 65.7391C19.3733 64.8261 19.6759 64.2174 19.9785 63.6087C20.2811 63 20.8863 62.3913 21.4915 62.087C22.0967 61.7826 23.0045 61.4783 24.2149 61.1739C25.7279 60.8696 26.9383 60.5652 27.5435 60.2609V59.9565C27.5435 59.3478 27.2409 58.7391 26.9383 58.4348C26.6357 58.1304 26.0305 57.8261 25.1227 57.8261C24.5175 57.8261 23.9123 57.8261 23.6097 58.1304C23.0045 58.4348 23.0045 58.7391 22.7019 59.3478ZM27.2409 62.6957C26.9383 63 26.0305 63 25.1227 63.3043C24.2149 63.3043 23.6097 63.6087 23.3071 63.913C23.0045 64.2174 22.7019 64.8261 22.7019 65.1304C22.7019 65.7391 23.0045 66.0435 23.3071 66.6522C23.6097 66.9565 24.2149 67.2609 24.5175 67.2609C25.1227 67.2609 25.7279 66.9565 26.3331 66.6522C26.6357 66.3478 26.9383 65.7391 27.2409 65.4348C27.2409 65.1304 27.2409 64.5217 27.2409 63.6087V62.6957ZM33.8981 69.6957V49.3043H37.2267V56.6087C38.1345 55.3913 39.6475 54.4783 40.8578 54.4783C42.3708 54.4783 43.5812 55.087 44.7916 56.3043C45.6994 57.5217 46.3046 59.3478 46.3046 61.7826C46.3046 64.2174 45.6994 66.3478 44.7916 67.5652C43.5812 69.3913 42.3708 70 40.8578 70C40.2527 70 39.3449 69.6956 38.7397 69.3913C38.1345 69.087 37.5293 68.4783 36.9241 67.5652V69.6957H33.8981ZM37.2267 62.087C37.2267 63.6087 37.5293 64.8261 37.8319 65.4348C38.4371 66.3478 39.3449 66.9565 40.2527 66.9565C40.8578 66.9565 41.7656 66.6522 42.0682 65.7391C42.6734 65.1304 42.976 63.913 42.976 62.3913C42.976 60.5652 42.6734 59.6522 42.0682 58.7391C41.463 58.1304 40.8578 57.5217 39.9501 57.5217C39.0423 57.5217 38.4371 57.8261 37.8319 58.7391C37.5293 59.3478 37.2267 60.5652 37.2267 62.087ZM49.028 69.6957V49.3043H52.3566V69.6957H49.028ZM63.2502 65.1304L66.5787 65.7391C66.2761 67.2609 65.3683 68.1739 64.4605 69.087C63.5527 69.6957 62.3424 70.3043 60.8294 70.3043C58.7112 70.3043 56.8956 69.3913 55.9878 67.8696C55.08 66.6522 54.7774 64.8261 54.7774 62.6957C54.7774 60.2609 55.3826 58.4348 56.593 56.913C57.8034 55.3913 59.0138 54.7826 60.8294 54.7826C62.645 54.7826 64.158 55.3913 65.3683 56.913C66.5787 58.4348 66.8813 60.5652 66.8813 63.6087H58.4086C58.4086 64.8261 58.7112 65.7391 59.3164 66.3478C59.9216 66.9565 60.5268 67.2609 61.132 67.2609C61.7372 67.2609 62.0398 66.9565 62.3424 66.6522C62.9476 66.3478 63.2502 65.7391 63.2502 65.1304ZM63.5527 61.1739C63.5527 59.9565 63.2502 59.0435 62.645 58.7391C62.0398 58.1304 61.4346 57.8261 60.8294 57.8261C60.2242 57.8261 59.619 58.1304 59.0138 58.7391C58.4086 59.3478 58.4086 60.2609 58.4086 61.1739H63.5527ZM68.3943 65.4348L71.7229 64.8261C71.7229 65.4348 72.0255 66.0435 72.6307 66.6522C72.9333 66.9565 73.8411 67.2609 74.4463 67.2609C75.3541 67.2609 75.9593 66.9565 76.5645 66.6522C76.8671 66.3478 76.8671 66.0435 76.8671 65.7391C76.8671 65.4348 76.8671 65.1304 76.5645 65.1304C76.2619 64.8261 75.9593 64.8261 75.3541 64.5217C72.6307 63.913 70.8151 63.3043 70.2099 62.6957C69.3021 61.7826 68.6969 60.8696 68.6969 59.3478C68.6969 58.1304 68.9995 56.913 69.9073 56C70.8151 55.087 72.0255 54.7826 74.1437 54.7826C75.9593 54.7826 77.1697 55.087 78.0775 55.6956C78.9853 56.3043 79.5905 57.2174 79.8931 58.7391L76.5645 59.3478C76.5645 58.7391 76.2619 58.4348 75.6567 58.1304C75.3541 57.8261 74.7489 57.5217 74.1437 57.5217C73.2359 57.5217 72.6307 57.5217 72.3281 57.8261C72.0255 58.1304 72.0255 58.4348 72.0255 58.7391C72.0255 59.0435 72.0255 59.3478 72.3281 59.3478C72.6307 59.6522 73.5385 59.9565 75.3541 60.5652C77.1697 61.1739 78.3801 61.4783 79.2879 62.3913C79.8931 63 80.4983 63.913 80.4983 65.1304C80.4983 66.3478 79.8931 67.5652 78.9853 68.4783C78.0775 69.3913 76.5645 70 74.7489 70C72.9333 70 71.7229 69.6957 70.5125 68.7826C69.6047 67.8696 68.6969 66.9565 68.3943 65.4348ZM90.484 69.6957V49.6087H94.1152V66.3478H102.891V69.6957H90.484ZM105.311 52.9565V49.3043H108.943V52.9565H105.311ZM105.311 69.6957V55.087H108.943V69.6957H105.311ZM111.969 55.087H114.995V57.2174C116.205 55.6956 117.415 54.7826 118.928 54.7826C119.836 54.7826 120.441 55.087 121.047 55.3913C121.652 55.6957 122.257 56.3043 122.559 57.2174C123.165 56.3043 123.77 56 124.375 55.3913C124.98 55.087 125.585 54.7826 126.493 54.7826C127.401 54.7826 128.309 55.087 128.914 55.3913C129.519 55.6957 130.124 56.6087 130.427 57.2174C130.73 57.8261 130.73 58.7391 130.73 60.2609V69.6957H127.401V61.1739C127.401 59.6522 127.401 58.7391 127.098 58.4348C126.796 57.8261 126.191 57.5217 125.585 57.5217C124.98 57.5217 124.678 57.8261 124.375 58.1304C124.072 58.4348 123.77 59.0435 123.467 59.6522C123.165 60.2609 123.165 61.1739 123.165 62.6957V69.6957H119.836V61.7826C119.836 60.2609 119.836 59.3478 119.534 59.0435C119.534 58.7391 119.231 58.4348 118.928 58.1304C118.626 57.8261 118.323 57.8261 118.021 57.8261C117.415 57.8261 117.113 58.1304 116.508 58.4348C116.205 58.7391 115.902 59.3478 115.6 59.9565C115.297 60.5652 115.297 61.4783 115.297 63V70H111.969V55.087ZM134.361 52.9565V49.3043H137.689V52.9565H134.361ZM134.361 69.6957V55.087H137.689V69.6957H134.361ZM147.07 55.087V58.1304H144.649V63.913C144.649 65.1304 144.649 65.7391 144.649 66.0435C144.649 66.3478 144.649 66.3478 144.952 66.6522C145.254 66.6522 145.254 66.9565 145.557 66.9565C145.86 66.9565 146.465 66.9565 147.07 66.6522L147.373 69.6957C146.465 70 145.557 70.3043 144.649 70.3043C144.044 70.3043 143.439 70.3043 143.136 70C142.531 69.6957 142.228 69.3913 141.926 69.087C141.623 68.7826 141.623 68.1739 141.321 67.5652C141.321 67.2609 141.321 66.3478 141.321 64.8261V58.4348H139.808V55.3913H141.321V52.3478L144.649 50.2174V55.3913H147.07V55.087ZM156.753 65.1304L160.082 65.7391C159.779 67.2609 158.871 68.1739 157.964 69.087C157.358 69.6957 156.148 70 154.635 70C152.517 70 150.701 69.087 149.793 67.5652C148.886 66.3478 148.583 64.5217 148.583 62.3913C148.583 59.9565 149.188 58.1304 150.399 56.6087C151.306 55.3913 152.517 54.7826 154.332 54.7826C156.148 54.7826 157.661 55.3913 158.871 56.913C160.082 58.4348 160.384 60.5652 160.384 63.6087H151.912C151.912 64.8261 152.214 65.7391 152.819 66.3478C153.425 66.9565 154.03 67.2609 154.635 67.2609C155.24 67.2609 155.543 66.9565 155.845 66.6522C156.451 66.3478 156.753 65.7391 156.753 65.1304ZM157.056 61.1739C157.056 59.9565 156.753 59.0435 156.148 58.7391C155.543 58.1304 154.938 57.8261 154.332 57.8261C153.727 57.8261 153.122 58.1304 152.517 58.7391C151.912 59.3478 151.912 60.2609 151.912 61.1739H157.056ZM174.909 69.6957H171.883V67.5652C171.278 68.4783 170.673 69.087 170.067 69.3913C169.462 69.6956 168.555 70 167.949 70C166.436 70 165.226 69.3913 164.016 67.8696C163.108 66.6522 162.503 64.5217 162.503 62.087C162.503 59.6522 163.108 57.8261 164.016 56.3043C164.923 55.087 166.436 54.4783 167.949 54.4783C169.462 54.4783 170.673 55.087 171.58 56.6087V49.3043H174.909V69.6957ZM165.831 62.087C165.831 63.6087 166.134 64.8261 166.436 65.4348C167.042 66.3478 167.647 66.9565 168.857 66.9565C169.765 66.9565 170.37 66.6522 170.975 65.7391C171.58 65.1304 171.883 63.913 171.883 62.3913C171.883 60.5652 171.58 59.3478 170.975 58.7391C170.37 58.1304 169.765 57.5217 168.857 57.5217C167.949 57.5217 167.344 57.8261 166.739 58.7391C166.134 59.3478 165.831 60.5652 165.831 62.087Z" fill="black"/>
<path id="Vector_3" fill-rule="evenodd" clip-rule="evenodd" d="M0.00683594 40.7832H174.606V45.0441H0.00683594V40.7832Z" fill="black"/>
</g>
</g>
<defs>
<clipPath id="clip0_472_11941">
<rect width="175.507" height="70" fill="white" transform="translate(0.00683594)"/>
</clipPath>
</defs>
</svg>
