<svg width="116" height="70" viewBox="0 0 116 70" fill="none" xmlns="http://www.w3.org/2000/svg">
<g id="surface1">
<path id="Vector" fill-rule="evenodd" clip-rule="evenodd" d="M0 61.2246H2.52408L3.43298 66.0408L4.76477 61.2246H7.28004L8.61329 66.0334L9.52366 61.2246H12.0345L10.1374 69.8262H7.53259L6.0246 64.4109L4.52102 69.8262H1.91325L0 61.2246Z" fill="black"/>
<path id="Vector_2" fill-rule="evenodd" clip-rule="evenodd" d="M13.0142 69.8262H15.6777V61.2246H13.0142V69.8262Z" fill="black"/>
<path id="Vector_3" fill-rule="evenodd" clip-rule="evenodd" d="M17.6201 69.8262V61.2246H22.0501C22.8709 61.2246 23.4994 61.2951 23.9325 61.4361C24.3686 61.577 24.7181 61.8384 24.9824 62.2187C25.2511 62.6004 25.3832 63.0644 25.3832 63.6121C25.3832 64.0893 25.2819 64.5019 25.0764 64.8485C24.8752 65.1935 24.5947 65.474 24.2394 65.6898C24.0118 65.8264 23.7005 65.9409 23.3055 66.0305C23.6198 66.1362 23.8518 66.2419 23.9957 66.3477C24.0955 66.4181 24.2365 66.5679 24.4215 66.7999C24.6065 67.0304 24.7313 67.2081 24.7944 67.3344L26.0822 69.8262H23.0779L21.6581 67.1978C21.4774 66.8572 21.3174 66.6369 21.1764 66.5341C20.9841 66.402 20.7682 66.3359 20.5245 66.3359H20.291V69.8262H17.6201ZM20.291 64.7105H21.4114C21.5318 64.7105 21.7667 64.6708 22.1147 64.593C22.2909 64.5577 22.4348 64.4682 22.5464 64.3228C22.658 64.1774 22.7138 64.0115 22.7138 63.8236C22.7138 63.5461 22.6257 63.3331 22.448 63.1848C22.2733 63.0351 21.9429 62.9617 21.4584 62.9617H20.291V64.7105Z" fill="black"/>
<path id="Vector_4" fill-rule="evenodd" clip-rule="evenodd" d="M26.9351 61.2246H34.058V63.0615H29.5986V64.4285H33.7349V66.1832H29.5986V67.8791H34.1872V69.8262H26.9351V61.2246Z" fill="black"/>
<g id="Clip path group">
<mask id="mask0_472_11904" style="mask-type:luminance" maskUnits="userSpaceOnUse" x="34" y="60" width="10" height="10">
<g id="clip1">
<path id="Vector_5" d="M34.9287 60.9043H43.1984V70.0007H34.9287V60.9043Z" fill="white"/>
</g>
</mask>
<g mask="url(#mask0_472_11904)">
<g id="Group">
<path id="Vector_6" fill-rule="evenodd" clip-rule="evenodd" d="M35.1616 66.9809L37.6901 66.8223C37.7444 67.2334 37.856 67.5462 38.0249 67.762C38.298 68.11 38.69 68.2833 39.1981 68.2833C39.5769 68.2833 39.8691 68.1952 40.0747 68.016C40.2803 67.8384 40.383 67.6328 40.383 67.3979C40.383 67.1747 40.2861 66.975 40.0894 66.7988C39.8941 66.6226 39.4404 66.4567 38.7282 66.301C37.5624 66.0382 36.7298 65.6902 36.235 65.2556C35.7343 64.8224 35.4832 64.2688 35.4832 63.5949C35.4832 63.1529 35.6124 62.7359 35.8664 62.3424C36.1249 61.9503 36.5096 61.6405 37.0235 61.4158C37.5389 61.1912 38.2437 61.0781 39.1394 61.0781C40.2391 61.0781 41.0761 61.2822 41.6532 61.6919C42.2302 62.1001 42.5738 62.7506 42.6839 63.6418L40.1775 63.7887C40.1114 63.4025 39.9704 63.1206 39.759 62.9444C39.5446 62.7682 39.2495 62.6801 38.8736 62.6801C38.5667 62.6801 38.3332 62.7462 38.1776 62.8768C38.0205 63.0075 37.9427 63.1676 37.9427 63.3555C37.9427 63.4921 38.0073 63.6154 38.1365 63.7241C38.2613 63.8386 38.5579 63.9443 39.0278 64.0412C40.1892 64.2923 41.0218 64.5449 41.5239 64.8018C42.0276 65.0573 42.3932 65.376 42.6223 65.7548C42.8499 66.1336 42.9644 66.558 42.9644 67.0278C42.9644 67.5799 42.8117 68.088 42.5077 68.5535C42.2023 69.0189 41.7765 69.3728 41.2288 69.6121C40.6811 69.8529 39.9895 69.9733 39.1555 69.9733C37.6945 69.9733 36.6814 69.6914 36.1175 69.129C35.5537 68.5652 35.235 67.8501 35.1616 66.9809Z" fill="black"/>
</g>
</g>
</g>
<g id="Clip path group_2">
<mask id="mask1_472_11904" style="mask-type:luminance" maskUnits="userSpaceOnUse" x="48" y="60" width="10" height="10">
<g id="clip2">
<path id="Vector_7" d="M48.0859 60.9043H57.8592V70.0007H48.0859V60.9043Z" fill="white"/>
</g>
</mask>
<g mask="url(#mask1_472_11904)">
<g id="Group_2">
<path id="Vector_8" fill-rule="evenodd" clip-rule="evenodd" d="M55.1055 65.6432L56.9717 66.0602C56.8734 66.4038 56.7809 66.6798 56.6898 66.8869C56.6003 67.0939 56.4725 67.3391 56.3095 67.6211L57.2067 68.2363C57.3153 68.3068 57.4563 68.3919 57.6296 68.4888L56.3433 69.9675C56.1098 69.8427 55.8661 69.6973 55.6135 69.5328C55.361 69.3698 55.1348 69.2289 54.9352 69.1114C54.5211 69.3845 54.107 69.5842 53.6915 69.709C53.1173 69.8823 52.4639 69.9675 51.7327 69.9675C50.5859 69.9675 49.7328 69.7296 49.1734 69.2524C48.6139 68.7752 48.335 68.1952 48.335 67.5153C48.335 67.0264 48.4994 66.5638 48.8283 66.1278C49.1558 65.6917 49.6946 65.3231 50.4406 65.0206C50.1278 64.6418 49.9134 64.3129 49.796 64.0324C49.6785 63.7534 49.6183 63.4686 49.6183 63.1793C49.6183 62.5685 49.8532 62.0663 50.3187 61.6713C50.7842 61.2764 51.489 61.0781 52.436 61.0781C53.4022 61.0781 54.1129 61.2661 54.5666 61.642C55.0203 62.0179 55.2464 62.4672 55.2464 62.9914C55.2464 63.285 55.1774 63.5655 55.0379 63.8357C54.8999 64.1058 54.7325 64.3246 54.5372 64.4935C54.3405 64.6609 53.991 64.912 53.4859 65.2438C53.9044 65.6623 54.3405 66.0514 54.7957 66.4126C54.9161 66.1689 55.0203 65.9134 55.1055 65.6432ZM52.3597 64.1352C52.6695 63.9678 52.9074 63.7843 53.0762 63.5861C53.2436 63.3893 53.3273 63.2028 53.3273 63.0266C53.3273 62.8431 53.2583 62.6874 53.1173 62.5597C52.9764 62.4334 52.7826 62.3688 52.5359 62.3688C52.2936 62.3688 52.0939 62.4393 51.9427 62.5802C51.7914 62.7212 51.7151 62.8871 51.7151 63.0795C51.7151 63.3218 51.9295 63.6742 52.3597 64.1352ZM51.5095 66.2247C51.1806 66.4552 50.9618 66.6519 50.8546 66.8164C50.746 66.9809 50.6931 67.1556 50.6931 67.3391C50.6931 67.624 50.8165 67.8795 51.0631 68.1012C51.3098 68.3244 51.6299 68.436 52.0249 68.436C52.4522 68.436 52.9309 68.2701 53.4624 67.9382C52.9544 67.5462 52.3039 66.975 51.5095 66.2247Z" fill="black"/>
</g>
</g>
</g>
<g id="Clip path group_3">
<mask id="mask2_472_11904" style="mask-type:luminance" maskUnits="userSpaceOnUse" x="62" y="60" width="10" height="10">
<g id="clip3">
<path id="Vector_9" d="M62.3691 60.9043H71.3906V70.0007H62.3691V60.9043Z" fill="white"/>
</g>
</mask>
<g mask="url(#mask2_472_11904)">
<g id="Group_3">
<path id="Vector_10" fill-rule="evenodd" clip-rule="evenodd" d="M68.7385 66.3069L71.0673 67.0102C70.9116 67.6636 70.665 68.2099 70.3287 68.6474C69.9925 69.085 69.5725 69.4168 69.0762 69.6386C68.577 69.8617 67.9427 69.9733 67.1718 69.9733C66.2364 69.9733 65.4729 69.8383 64.8812 69.5666C64.288 69.295 63.777 68.8163 63.3468 68.132C62.9151 67.4478 62.7007 66.5727 62.7007 65.5052C62.7007 64.0824 63.0795 62.9884 63.8357 62.2249C64.5919 61.4599 65.6638 61.0781 67.0484 61.0781C68.1306 61.0781 68.9837 61.2969 69.6034 61.7359C70.2245 62.1735 70.6841 62.846 70.9865 63.7534L68.6387 64.2762C68.5564 64.0148 68.4713 63.8225 68.3802 63.7006C68.2319 63.498 68.0499 63.3408 67.834 63.2322C67.6196 63.1221 67.3788 63.0677 67.113 63.0677C66.511 63.0677 66.0485 63.31 65.7284 63.7946C65.4847 64.1543 65.3643 64.7181 65.3643 65.4876C65.3643 66.4405 65.5096 67.0939 65.7974 67.4478C66.0881 67.8017 66.4949 67.9779 67.0191 67.9779C67.5271 67.9779 67.9118 67.8354 68.1717 67.5506C68.4331 67.2642 68.621 66.8502 68.7385 66.3069Z" fill="black"/>
</g>
</g>
</g>
<path id="Vector_11" fill-rule="evenodd" clip-rule="evenodd" d="M77.6548 68.4063H74.6388L74.2189 69.8262H71.5054L74.7387 61.2246H77.6372L80.869 69.8262H78.0865L77.6548 68.4063ZM77.1042 66.5459L76.1556 63.455L75.2159 66.5459H77.1042Z" fill="black"/>
<path id="Vector_12" fill-rule="evenodd" clip-rule="evenodd" d="M81.7261 61.2246H86.7038C87.5334 61.2246 88.1692 61.4302 88.6141 61.8413C89.056 62.251 89.2792 62.7605 89.2792 63.3669C89.2792 63.875 89.1192 64.3111 88.8049 64.6752C88.5935 64.9175 88.2837 65.1084 87.877 65.2493C88.4951 65.3991 88.9503 65.6531 89.241 66.0158C89.5332 66.377 89.6786 66.8322 89.6786 67.3799C89.6786 67.8263 89.5758 68.2271 89.3673 68.5825C89.1603 68.9393 88.8769 69.2197 88.5172 69.4282C88.294 69.556 87.9577 69.65 87.5084 69.7087C86.9093 69.788 86.5129 69.8262 86.3146 69.8262H81.7261V61.2246ZM84.4102 64.5989H85.5658C85.9799 64.5989 86.2677 64.5269 86.4306 64.3845C86.5936 64.2421 86.6744 64.035 86.6744 63.7648C86.6744 63.5152 86.5936 63.3199 86.4306 63.179C86.2677 63.038 85.9857 62.9675 85.5834 62.9675H84.4102V64.5989ZM84.4102 67.9775H85.7655C86.2207 67.9775 86.5452 67.8968 86.7331 67.7352C86.9211 67.5722 87.015 67.3549 87.015 67.0804C87.015 66.8263 86.9225 66.6222 86.7361 66.4681C86.5496 66.3124 86.2251 66.2361 85.7596 66.2361H84.4102V67.9775Z" fill="black"/>
<path id="Vector_13" fill-rule="evenodd" clip-rule="evenodd" d="M91.0767 61.2246H93.7358V67.7088H97.8839V69.8262H91.0767V61.2246Z" fill="black"/>
<path id="Vector_14" fill-rule="evenodd" clip-rule="evenodd" d="M99.0938 61.2246H106.217V63.0615H101.757V64.4285H105.894V66.1832H101.757V67.8791H106.346V69.8262H99.0938V61.2246Z" fill="black"/>
<g id="Clip path group_4">
<mask id="mask3_472_11904" style="mask-type:luminance" maskUnits="userSpaceOnUse" x="107" y="60" width="9" height="10">
<g id="clip4">
<path id="Vector_15" d="M107.101 60.9043H115.108V70.0007H107.101V60.9043Z" fill="white"/>
</g>
</mask>
<g mask="url(#mask3_472_11904)">
<g id="Group_4">
<path id="Vector_16" fill-rule="evenodd" clip-rule="evenodd" d="M107.321 66.9809L109.85 66.8223C109.906 67.2334 110.017 67.5462 110.185 67.762C110.459 68.11 110.85 68.2833 111.358 68.2833C111.738 68.2833 112.03 68.1952 112.236 68.016C112.44 67.8384 112.544 67.6328 112.544 67.3979C112.544 67.1747 112.446 66.975 112.251 66.7988C112.055 66.6226 111.602 66.4567 110.889 66.301C109.723 66.0382 108.892 65.6902 108.395 65.2556C107.894 64.8224 107.644 64.2688 107.644 63.5949C107.644 63.1529 107.772 62.7359 108.029 62.3424C108.285 61.9503 108.671 61.6405 109.183 61.4158C109.699 61.1912 110.403 61.0781 111.298 61.0781C112.399 61.0781 113.237 61.2822 113.814 61.6919C114.391 62.1001 114.735 62.7506 114.844 63.6418L112.339 63.7887C112.273 63.4025 112.132 63.1206 111.919 62.9444C111.704 62.7682 111.411 62.6801 111.036 62.6801C110.726 62.6801 110.494 62.7462 110.337 62.8768C110.182 63.0075 110.102 63.1676 110.102 63.3555C110.102 63.4921 110.167 63.6154 110.295 63.7241C110.419 63.8386 110.718 63.9443 111.187 64.0412C112.35 64.2923 113.183 64.5449 113.685 64.8018C114.187 65.0573 114.553 65.376 114.782 65.7548C115.01 66.1336 115.126 66.558 115.126 67.0278C115.126 67.5799 114.973 68.088 114.667 68.5535C114.362 69.0189 113.936 69.3728 113.388 69.6121C112.841 69.8529 112.151 69.9733 111.317 69.9733C109.854 69.9733 108.841 69.6914 108.279 69.129C107.715 68.5652 107.396 67.8501 107.321 66.9809Z" fill="black"/>
</g>
</g>
</g>
<path id="Vector_17" fill-rule="evenodd" clip-rule="evenodd" d="M35.6488 46.4146V51.1471H35.659C36.0995 57.3391 45.2767 57.3391 45.7172 51.1471H45.7289V44.7187H42.895V48.6538C42.8451 48.6127 42.8451 48.6127 42.8451 48.6127C41.992 50.7961 39.3402 50.7991 38.4812 48.6245V27.9414H35.6488V46.4146ZM68.6116 37.3182V32.5858H68.6013C68.1593 26.3938 58.9836 26.3938 58.5417 32.5858H58.5314V51.1471H58.5417C58.9836 57.3391 68.1593 57.3391 68.6013 51.1471H68.6116V44.7187H65.7777V48.6538C65.7292 48.6127 65.7277 48.6127 65.7277 48.6127C64.8746 50.7961 62.2243 50.7991 61.3653 48.6245V35.0805C61.4123 35.1201 61.4152 35.1216 61.4152 35.1216C62.2669 32.9382 64.9187 32.9338 65.7777 35.1084V38.9598H68.6116V37.3182ZM77.6536 37.3182V41.8789H73.2383V35.0805C73.2897 35.1201 73.2897 35.1216 73.2897 35.1216C74.1428 32.9382 76.7932 32.9338 77.6536 35.1084V37.3182ZM77.6536 43.9155V55.7914H80.486V32.5858H80.4743C80.0338 26.3938 70.8567 26.3938 70.4176 32.5858H70.4059V55.7914H73.2383V43.9155H77.6536ZM56.2467 40.437H56.2584V27.9414H53.4245V37.9437C53.3746 37.9026 53.3746 37.9026 53.3746 37.9026C52.5229 40.0861 49.8697 40.089 49.0107 37.9144V27.9414H46.1782V40.437H46.1885C46.3662 42.917 47.9432 44.4044 49.8021 44.8978V55.7914H52.6345V44.8978C54.4905 44.4044 56.0705 42.917 56.2467 40.437ZM30.9002 48.3558V48.6538C30.8502 48.6127 30.8488 48.6127 30.8488 48.6127C29.9971 50.7961 27.3453 50.7991 26.4863 48.6245V35.0805C26.5348 35.1201 26.5348 35.1216 26.5348 35.1216C27.3879 32.9382 30.0412 32.9338 30.9002 35.1084V48.3558ZM33.7223 51.1471H33.7326V32.5858H33.7223C33.2803 26.3938 24.1047 26.3938 23.6627 32.5858H23.6509V51.1471H23.6627C24.1047 57.3391 33.2803 57.3391 33.7223 51.1471ZM89.5134 47.7023V48.6538C89.4635 48.6127 89.462 48.6127 89.462 48.6127C88.6104 50.7961 85.9585 50.7991 85.0996 48.6245V35.0805C85.1495 35.1201 85.1495 35.1216 85.1495 35.1216C86.0026 32.9382 88.6544 32.9338 89.5134 35.1084V40.3313C89.4723 40.2975 89.509 41.3547 88.9745 41.8789H85.5166V43.9155H89.0685C89.5046 44.4602 89.4752 45.494 89.5134 45.4631V47.7023ZM92.3355 51.1471H92.3458V45.9124H92.3355C92.2298 44.4338 92.0331 43.3076 91.2813 42.6586C91.9171 42.108 92.2416 41.1932 92.3355 39.882H92.3458V32.5858H92.3355C91.8951 26.3938 82.7179 26.3938 82.2774 32.5858H82.2657V51.1471H82.2774C82.7179 57.3391 91.8951 57.3391 92.3355 51.1471ZM18.3635 42.8142V43.4706C18.3121 43.4295 18.3121 43.4295 18.3121 43.4295C17.4604 45.6129 14.8086 45.6173 13.9496 43.4412V35.0805C13.9995 35.1201 14.001 35.1216 14.001 35.1216C14.8526 32.9382 17.5045 32.9338 18.3635 35.1084V42.8142ZM21.1856 45.9638H21.1974V32.5858H21.1856C20.7451 26.3938 11.568 26.3938 11.1275 32.5858H11.1172V55.7914H13.9496V50.1471C16.8261 51.4319 20.8949 50.037 21.1856 45.9638Z" fill="#DD2B1C"/>
<path id="Vector_18" fill-rule="evenodd" clip-rule="evenodd" d="M51.7797 0C57.7529 0 62.5925 4.83965 62.5925 10.8114C62.5925 16.7817 57.7529 21.6213 51.7797 21.6213C45.8108 21.6213 40.9697 16.7817 40.9697 10.8114C40.9697 4.83965 45.8108 0 51.7797 0Z" fill="#DD2B1C"/>
<path id="Vector_19" fill-rule="evenodd" clip-rule="evenodd" d="M54.6035 6.37368C54.1131 6.08589 53.9486 5.4545 54.2364 4.96407C54.5242 4.47365 55.1541 4.30919 55.6445 4.59699C56.8119 5.28417 57.7501 6.25034 58.3962 7.37803C59.0437 8.51305 59.4006 9.81107 59.4006 11.159C59.4006 13.2631 58.5489 15.169 57.1687 16.5478C55.7899 17.9266 53.8855 18.7797 51.7799 18.7797C49.6772 18.7797 47.7713 17.9266 46.3925 16.5478C45.0137 15.169 44.1621 13.2631 44.1621 11.159C44.1621 9.78757 44.5351 8.4646 45.209 7.31195C45.8815 6.16371 46.8521 5.1902 48.0503 4.5177C48.548 4.23871 49.1765 4.41638 49.4555 4.91268C49.7345 5.41045 49.5568 6.0389 49.0605 6.31788C48.1824 6.81125 47.4732 7.51899 46.9857 8.35447C46.4982 9.18555 46.2295 10.1517 46.2295 11.159C46.2295 12.6934 46.8506 14.081 47.855 15.0854C48.8593 16.0912 50.2484 16.7123 51.7799 16.7123C53.3143 16.7123 54.7033 16.0912 55.7077 15.0854C56.712 14.081 57.3346 12.6934 57.3346 11.159C57.3346 10.1752 57.0747 9.22814 56.6034 8.4044C56.1291 7.57478 55.4448 6.86998 54.6035 6.37368ZM50.7829 3.45168C50.7829 2.88196 51.2454 2.41797 51.8166 2.41797C52.3863 2.41797 52.8503 2.88196 52.8503 3.45168V12.0503C52.8503 12.6215 52.3863 13.084 51.8166 13.084C51.2454 13.084 50.7829 12.6215 50.7829 12.0503V3.45168Z" fill="white"/>
</g>
</svg>
