<svg width="50" height="50" viewBox="0 0 50 50" fill="none" xmlns="http://www.w3.org/2000/svg">
<path id="Vector" d="M29.8298 31.7704H34.7098L35.8198 24.7204H28.4198C28.4198 24.5304 28.4198 24.3804 28.4198 24.2404V20.0004C28.3815 19.5442 28.437 19.0849 28.5831 18.651C28.7292 18.2171 28.9626 17.8177 29.269 17.4775C29.5755 17.1374 29.9484 16.8636 30.3648 16.6732C30.7811 16.4828 31.2321 16.3797 31.6898 16.3704C33.1098 16.2504 34.5398 16.3004 35.9698 16.2804H36.8598V10.0504C36.2798 9.97041 35.6698 9.87041 35.0598 9.81041C32.7175 9.4334 30.3267 9.47742 27.9998 9.94041C26.3149 10.3024 24.7875 11.1879 23.6363 12.4703C22.485 13.7527 21.7687 15.3663 21.5898 17.0804C21.3498 19.0004 21.4198 20.9704 21.3598 22.9104C21.3598 23.4804 21.3598 24.0504 21.3598 24.6904H15.7098V31.7504H21.3298V49.6904C15.3734 48.848 9.9271 45.8668 6.00759 41.3033C2.08808 36.7397 -0.0367172 30.9057 0.0298377 24.8904C0.188806 18.4555 2.82371 12.3298 7.38593 7.78885C11.9482 3.24792 18.0861 0.641696 24.5217 0.512829C30.9573 0.383961 37.1947 2.74238 41.935 7.09704C46.6754 11.4517 49.5534 17.467 49.9698 23.8904C50.2966 30.2679 48.1225 36.5212 43.9098 41.3204C40.2853 45.5983 35.3438 48.5526 29.8598 49.7204L29.8298 31.7704Z" fill="#F4F4F4"/>
</svg>
