<svg width="30" height="28" viewBox="0 0 30 28" fill="none" xmlns="http://www.w3.org/2000/svg">
<g clip-path="url(#clip0_690_56869)">
<path d="M26.557 24.6928C25.8969 24.6928 25.2368 24.7022 24.5767 24.6876C24.3598 24.6825 24.2693 24.7589 24.1839 24.9574C23.4649 26.631 21.7579 27.6087 19.9485 27.4016C18.2056 27.2023 16.7522 25.8329 16.4183 24.0768C16.0298 22.0321 17.2458 20.0123 19.244 19.3834C21.2063 18.7657 23.3505 19.7468 24.1745 21.6558C24.2702 21.8783 24.3726 21.953 24.6126 21.9504C25.9541 21.9376 27.2956 21.9384 28.6371 21.947C29.3365 21.9513 29.871 22.4333 29.9803 23.1257C30.0811 23.7632 29.6943 24.4093 29.0709 24.6077C28.8822 24.6679 28.6738 24.6859 28.474 24.6894C27.8353 24.6997 27.1966 24.6928 26.5578 24.6928H26.557Z" fill="black"/>
<path d="M3.37556 12.3457C4.04674 12.3457 4.71792 12.3371 5.38825 12.35C5.61027 12.3543 5.71786 12.289 5.81009 12.0733C6.51116 10.4333 8.23523 9.41605 9.94734 9.61193C11.791 9.82242 13.2367 11.1506 13.5757 12.9454C13.9608 14.9841 12.7533 17.0142 10.7859 17.6336C8.79455 18.2608 6.65803 17.2977 5.82204 15.3758C5.71616 15.1336 5.59661 15.0708 5.35239 15.0726C4.02112 15.0837 2.68986 15.0829 1.35859 15.0743C0.75316 15.07 0.281795 14.7255 0.0828311 14.1808C-0.110155 13.6498 0.0350114 13.0622 0.455995 12.6868C0.722419 12.4488 1.03666 12.3422 1.39275 12.3448C2.05283 12.3483 2.71291 12.3457 3.37385 12.3448L3.37556 12.3457Z" fill="black"/>
<path d="M25.9285 0.000203945C28.1991 0.0225413 30.0085 1.85506 29.9991 4.12231C29.9897 6.39557 28.1214 8.25214 25.8687 8.22809C23.6161 8.20317 21.7989 6.34058 21.8237 4.07935C21.8476 1.79321 23.675 -0.0221334 25.9285 0.000203945Z" fill="black"/>
<path d="M9.52893 5.47972C6.82542 5.47972 4.12105 5.48316 1.41753 5.47801C0.471381 5.47629 -0.174184 4.68073 0.0427119 3.7838C0.171654 3.24942 0.520908 2.91093 1.05205 2.77862C1.2049 2.74082 1.368 2.73223 1.52683 2.73223C6.87068 2.72965 12.2145 2.72965 17.5584 2.73395C17.7676 2.73395 17.987 2.75886 18.1843 2.82501C18.7931 3.02863 19.1672 3.66095 19.0784 4.28983C18.9844 4.95394 18.4396 5.45911 17.7684 5.47457C17.1195 5.48917 16.4696 5.47887 15.8206 5.47887C13.7234 5.47887 11.6262 5.47887 9.52893 5.47887V5.47972Z" fill="black"/>
<path d="M6.82457 24.6925C5.04585 24.6925 3.26798 24.6951 1.48926 24.6916C0.69682 24.6899 0.14604 24.2517 0.0222209 23.5378C-0.112699 22.7612 0.450036 22.0223 1.23308 21.9493C1.28603 21.9441 1.33982 21.9441 1.39277 21.9441C5.0134 21.9441 8.63403 21.9415 12.2555 21.9458C13.0181 21.9467 13.5987 22.5163 13.6363 23.2663C13.6713 23.9665 13.1436 24.5782 12.4152 24.6753C12.2683 24.6951 12.118 24.6916 11.9686 24.6916C10.2539 24.6925 8.53924 24.6916 6.82457 24.6916V24.6925Z" fill="black"/>
<path d="M23.1806 15.0785C21.3805 15.0785 19.5813 15.0845 17.7812 15.0759C16.8265 15.0716 16.1964 14.2872 16.403 13.3869C16.5328 12.8224 17.0272 12.3954 17.6036 12.3533C17.6779 12.3482 17.7522 12.3465 17.8273 12.3465C21.395 12.3465 24.9619 12.3447 28.5296 12.3465C29.2989 12.3465 29.8343 12.764 29.9659 13.4487C30.1247 14.2744 29.5423 15.0424 28.7063 15.0699C27.9719 15.094 27.2367 15.0785 26.5023 15.0785C25.3948 15.0785 24.2873 15.0785 23.1797 15.0785H23.1806Z" fill="black"/>
</g>
<defs>
<clipPath id="clip0_690_56869">
<rect width="30" height="27.4286" fill="white"/>
</clipPath>
</defs>
</svg>
