<svg width="385" height="145" viewBox="0 0 385 145" fill="none" xmlns="http://www.w3.org/2000/svg">
<path d="M278.955 35.7305H268.084C263.997 35.7305 260.685 39.043 260.685 43.1293V56.2927C260.685 60.379 263.997 63.6915 268.084 63.6915H278.955C283.041 63.6915 286.354 60.379 286.354 56.2927V43.1293C286.354 39.043 283.041 35.7305 278.955 35.7305Z" fill="#FF860D"/>
<path d="M306.621 36.0039H295.75C291.663 36.0039 288.351 39.3165 288.351 43.4027V56.5662C288.351 60.6524 291.663 63.965 295.75 63.965H306.621C310.707 63.965 314.02 60.6524 314.02 56.5662V43.4027C314.02 39.3165 310.707 36.0039 306.621 36.0039Z" fill="#FF860D"/>
<path d="M278.955 65.3945H268.084C263.997 65.3945 260.685 68.7071 260.685 72.7933V81.1453C260.685 85.2316 263.997 88.5441 268.084 88.5441H278.955C283.041 88.5441 286.354 85.2316 286.354 81.1453V72.7933C286.354 68.7071 283.041 65.3945 278.955 65.3945Z" fill="#FF860D"/>
<path d="M306.621 65.6445H295.75C291.663 65.6445 288.351 68.9571 288.351 73.0433V81.3953C288.351 85.4816 291.663 88.7941 295.75 88.7941H306.621C310.707 88.7941 314.02 85.4816 314.02 81.3953V73.0433C314.02 68.9571 310.707 65.6445 306.621 65.6445Z" fill="#FF860D"/>
<path d="M59.011 42.9024L60.1231 43.7195V36.0938C60.1095 38.4074 59.7343 40.7047 59.011 42.9024Z" fill="#F4F4F4"/>
<path d="M74.2624 33.1661C73.5948 25.4925 70.5046 18.23 65.4382 12.4281C60.3718 6.62625 53.5918 2.58569 46.0781 0.89043C38.5643 -0.804829 30.7062 -0.0669652 23.6394 2.99738C16.5726 6.06172 10.6632 11.2938 6.76546 17.9374C5.78809 19.612 4.95299 21.3657 4.26894 23.1801C4.08591 24.2212 4.04014 25.2818 4.13277 26.3348C4.43214 29.0924 5.73115 31.6448 7.78435 33.5098C9.83756 35.3749 12.5027 36.4233 15.2763 36.457H16.1842V36.0939C16.1812 32.7744 16.9313 29.4974 18.378 26.5097C19.8246 23.522 21.9302 20.9014 24.5362 18.8452C26.4573 17.2996 28.6196 16.0805 30.9363 15.2366C33.4605 14.3695 36.1215 13.9695 38.789 14.0564C44.5448 14.3032 49.9802 16.7736 53.951 20.9476C57.9218 25.1216 60.1181 30.6735 60.0776 36.4343V43.7196L59.0109 42.9026C52.903 38.6204 45.6244 36.3231 38.1649 36.3231C30.7054 36.3231 23.4269 38.6204 17.3189 42.9026L16.2523 43.6969C12.1098 46.4423 8.575 50.0088 5.86662 54.1756C3.15824 58.3423 1.33394 63.0206 0.506667 67.9209C-0.320605 72.8211 -0.133234 77.8391 1.05716 82.664C2.24755 87.4889 4.41563 92.0182 7.42719 95.9713C10.4388 99.9245 14.2297 103.217 18.5653 105.646C22.901 108.075 27.689 109.588 32.633 110.092C37.577 110.596 42.5718 110.079 47.3081 108.574C52.0445 107.07 56.4215 104.609 60.1684 101.344C60.1654 102.277 60.3462 103.201 60.7004 104.064C61.0546 104.927 61.5754 105.712 62.2329 106.374C62.8905 107.035 63.6719 107.561 64.5327 107.921C65.3934 108.281 66.3165 108.467 67.2494 108.47H74.3758V36.0939C74.3758 35.0499 74.3304 34.0967 74.2624 33.1661ZM38.1536 94.4444C33.8149 94.4399 29.5748 93.1496 25.9692 90.7363C22.3635 88.323 19.5541 84.8952 17.8958 80.8859C16.2375 76.8766 15.8048 72.4657 16.6524 68.2106C17.4999 63.9555 19.5897 60.047 22.6576 56.9791C25.7255 53.9111 29.634 51.8214 33.8891 50.9739C38.1442 50.1263 42.5551 50.559 46.5644 52.2173C50.5737 53.8756 54.0016 56.685 56.4148 60.2907C58.8281 63.8963 60.1185 68.1363 60.123 72.475C60.1289 75.3639 59.5651 78.2256 58.4637 80.8963C57.3623 83.567 55.745 85.9942 53.7044 88.0391C51.6637 90.084 49.2398 91.7063 46.5714 92.8132C43.903 93.9201 41.0425 94.4898 38.1536 94.4898V94.4444Z" fill="#F4F4F4"/>
<path d="M74.1034 43.7207H59.8279V102.502H74.1034V43.7207Z" fill="#F4F4F4"/>
<path d="M118.315 36.8653C110.349 36.8569 102.611 39.5267 96.3452 44.4456V35.7305H82.0696V144.67C85.8557 144.67 89.4867 143.166 92.1639 140.488C94.8411 137.811 96.3452 134.18 96.3452 130.394V100.617C100.82 104.113 106.065 106.49 111.644 107.549C117.223 108.608 122.974 108.32 128.418 106.708C133.863 105.096 138.844 102.206 142.947 98.2803C147.049 94.3544 150.155 89.5053 152.005 84.1367C153.855 78.768 154.396 73.0352 153.583 67.4152C152.77 61.7953 150.626 56.4508 147.331 51.8266C144.035 47.2024 139.683 43.4323 134.636 40.8299C129.589 38.2276 123.993 36.8683 118.315 36.8653ZM118.315 94.4896C113.969 94.4896 109.722 93.2011 106.109 90.787C102.496 88.373 99.6803 84.9419 98.0175 80.9275C96.3547 76.9131 95.9196 72.4958 96.7673 68.2341C97.615 63.9725 99.7074 60.0579 102.78 56.9854C105.852 53.913 109.767 51.8206 114.029 50.9729C118.29 50.1252 122.708 50.5602 126.722 52.2231C130.736 53.8859 134.167 56.7017 136.581 60.3146C138.995 63.9275 140.284 68.175 140.284 72.5201C140.284 78.3468 137.969 83.9348 133.849 88.0549C129.729 92.1749 124.141 94.4896 118.315 94.4896Z" fill="#F4F4F4"/>
<path d="M198.203 36.8653C190.222 36.8467 182.467 39.5171 176.189 44.4456V35.7305H161.913V144.67C165.691 144.67 169.316 143.172 171.991 140.505C174.667 137.837 176.177 134.218 176.189 130.439V100.617C180.663 104.113 185.908 106.49 191.487 107.549C197.066 108.608 202.817 108.32 208.262 106.708C213.707 105.096 218.688 102.206 222.79 98.2803C226.893 94.3544 229.998 89.5053 231.848 84.1367C233.698 78.768 234.24 73.0352 233.427 67.4152C232.614 61.7953 230.47 56.4508 227.174 51.8266C223.879 47.2024 219.526 43.4323 214.479 40.8299C209.432 38.2276 203.836 36.8683 198.158 36.8653H198.203ZM198.203 94.4896C193.858 94.4896 189.611 93.2011 185.998 90.787C182.385 88.373 179.569 84.9419 177.906 80.9275C176.244 76.9131 175.808 72.4958 176.656 68.2341C177.504 63.9725 179.596 60.0579 182.669 56.9854C185.741 53.913 189.656 51.8206 193.917 50.9729C198.179 50.1252 202.596 50.5602 206.611 52.2231C210.625 53.8859 214.056 56.7017 216.47 60.3146C218.884 63.9275 220.173 68.175 220.173 72.5201C220.173 78.3468 217.858 83.9348 213.738 88.0549C209.618 92.1749 204.03 94.4896 198.203 94.4896Z" fill="#F4F4F4"/>
<path d="M255.623 35.7305V108.72H241.348V49.9833C241.354 46.2012 242.861 42.5759 245.537 39.9037C248.214 37.2314 251.841 35.7305 255.623 35.7305Z" fill="#F4F4F4"/>
<path d="M314.292 94.4902C314.292 98.2764 312.788 101.907 310.111 104.585C307.433 107.262 303.802 108.766 300.016 108.766H241.189V94.4902H314.292Z" fill="#F4F4F4"/>
<path d="M326.729 49.8253H324.051L323.529 53.4339H321.032L323.756 37.0703H327.069L329.793 53.4339H327.274L326.729 49.8253ZM326.411 47.5557L325.39 40.747L324.391 47.5557H326.411Z" fill="#F4F4F4"/>
<path d="M342.412 37.0703V53.4339H339.915V42.2222L337.646 53.4339H335.921L333.651 42.2222V53.4339H331.223V37.0703H334.718L336.874 47.533L338.939 37.0703H342.412Z" fill="#F4F4F4"/>
<path d="M349.424 49.8253H346.769L346.224 53.4339H343.75L346.406 37.0703H349.742L352.443 53.4339H349.924L349.424 49.8253ZM349.107 47.5557L348.085 40.747L347.087 47.5557H349.107Z" fill="#F4F4F4"/>
<path d="M360.659 39.181L355.984 51.0962H360.659V53.3658H353.215V51.2778L357.89 39.3399H353.215V37.0703H360.659V39.181Z" fill="#F4F4F4"/>
<path d="M362.293 37.0703H364.563V53.4339H362.293V37.0703Z" fill="#F4F4F4"/>
<path d="M366.832 37.0703H369.578L372.733 48.055V37.0703H375.161V53.4339H372.506L369.215 42.9031V53.3658H366.832V37.0703Z" fill="#F4F4F4"/>
<path d="M382.515 42.1758V40.7914C382.541 40.3524 382.395 39.9205 382.106 39.5885C381.964 39.4479 381.793 39.3388 381.605 39.2685C381.417 39.1981 381.217 39.168 381.017 39.18C380.814 39.1689 380.61 39.1994 380.419 39.2697C380.228 39.3399 380.053 39.4484 379.905 39.5885C379.633 39.9284 379.495 40.3566 379.519 40.7914V49.7108C379.497 50.1385 379.634 50.5591 379.905 50.891C380.048 51.0387 380.222 51.1537 380.414 51.2281C380.606 51.3025 380.812 51.3346 381.017 51.3222C381.219 51.3359 381.422 51.3043 381.61 51.2297C381.799 51.1551 381.968 51.0394 382.106 50.891C382.25 50.7313 382.359 50.5447 382.43 50.3421C382.5 50.1394 382.529 49.9248 382.515 49.7108V46.8285H381.017V44.5589H384.989V49.7108C385.012 50.2366 384.927 50.7615 384.74 51.2533C384.552 51.745 384.266 52.1933 383.899 52.5705C383.103 53.2725 382.078 53.6599 381.017 53.6599C379.956 53.6599 378.931 53.2725 378.135 52.5705C377.765 52.1944 377.475 51.7469 377.284 51.2552C377.093 50.7635 377.004 50.238 377.023 49.7108V40.7914C376.981 40.2431 377.053 39.6921 377.235 39.1729C377.416 38.6538 377.703 38.1777 378.077 37.7745C378.451 37.3713 378.904 37.0496 379.408 36.8296C379.912 36.6096 380.456 36.4961 381.006 36.4961C381.556 36.4961 382.1 36.6096 382.604 36.8296C383.108 37.0496 383.561 37.3713 383.935 37.7745C384.308 38.1777 384.595 38.6538 384.777 39.1729C384.958 39.6921 385.03 40.2431 384.989 40.7914V42.1758H382.515Z" fill="#F4F4F4"/>
<path d="M321.849 55.4981H325.73C326.247 55.4744 326.764 55.5567 327.248 55.7402C327.732 55.9236 328.173 56.2043 328.544 56.5648C328.904 56.9412 329.185 57.3866 329.368 57.8742C329.551 58.3618 329.634 58.8814 329.611 59.4018V61.3309C329.634 61.8513 329.551 62.371 329.368 62.8585C329.185 63.3461 328.904 63.7915 328.544 64.1679C328.175 64.5318 327.734 64.8147 327.25 64.9984C326.765 65.1821 326.248 65.2625 325.73 65.2346H324.323V71.8844H321.849V55.4981ZM325.617 62.8969C326.023 62.9178 326.422 62.7794 326.729 62.5111C326.869 62.3591 326.978 62.1802 327.048 61.9853C327.119 61.7903 327.149 61.5832 327.137 61.3763V59.3564C327.154 59.1524 327.127 58.947 327.057 58.7547C326.986 58.5624 326.875 58.3877 326.73 58.2429C326.585 58.0981 326.411 57.9867 326.218 57.9164C326.026 57.8461 325.821 57.8186 325.617 57.8358H324.323V62.8969H325.617Z" fill="#F4F4F4"/>
<path d="M331.994 71.0224C331.627 70.6452 331.341 70.1969 331.154 69.7051C330.967 69.2134 330.882 68.6885 330.905 68.1627V59.2206C330.882 58.6948 330.967 58.1699 331.154 57.6782C331.341 57.1864 331.627 56.7381 331.994 56.361C332.79 55.6589 333.815 55.2715 334.877 55.2715C335.938 55.2715 336.963 55.6589 337.759 56.361C338.126 56.7381 338.412 57.1864 338.599 57.6782C338.787 58.1699 338.872 58.6948 338.849 59.2206V68.1627C338.872 68.6885 338.787 69.2134 338.599 69.7051C338.412 70.1969 338.126 70.6452 337.759 71.0224C336.963 71.7244 335.938 72.1118 334.877 72.1118C333.815 72.1118 332.79 71.7244 331.994 71.0224ZM335.966 69.3656C336.255 69.0336 336.401 68.6017 336.375 68.1627V59.2206C336.389 59.0066 336.36 58.792 336.289 58.5893C336.219 58.3867 336.109 58.2001 335.966 58.0404C335.828 57.892 335.659 57.7763 335.47 57.7017C335.282 57.6271 335.079 57.5955 334.877 57.6092C334.671 57.5968 334.466 57.6289 334.274 57.7033C334.082 57.7777 333.908 57.8927 333.765 58.0404C333.494 58.3723 333.357 58.793 333.379 59.2206V68.1627C333.355 68.5975 333.493 69.0257 333.765 69.3656C333.913 69.5057 334.087 69.6142 334.279 69.6844C334.47 69.7547 334.673 69.7852 334.877 69.7741C335.077 69.7862 335.277 69.756 335.465 69.6856C335.653 69.6153 335.823 69.5062 335.966 69.3656Z" fill="#F4F4F4"/>
<path d="M352.897 55.5005L350.469 71.8867H347.745L346.406 61.0609L345.09 71.8414H342.366L339.96 55.4551H342.457L343.819 66.5306L345.158 55.4551H347.7L349.061 66.5306L350.4 55.4551L352.897 55.5005Z" fill="#F4F4F4"/>
<path d="M354.236 55.4961H361.294V57.7657H356.755V62.3048H360.364V64.5744H356.755V69.3631H361.294V71.6327H354.236V55.4961Z" fill="#F4F4F4"/>
<path d="M368.353 71.8841L366.56 65.0754H365.266V71.8841H362.792V55.4979H366.673C367.194 55.475 367.713 55.5577 368.201 55.741C368.688 55.9243 369.134 56.2045 369.51 56.5646C369.863 56.945 370.137 57.3916 370.316 57.8786C370.495 58.3655 370.576 58.8831 370.554 59.4015V61.2172C370.565 61.9024 370.41 62.5801 370.1 63.1917C369.829 63.76 369.395 64.2343 368.852 64.5535L370.917 71.8841H368.353ZM365.266 62.8059H366.56C366.763 62.817 366.967 62.7865 367.158 62.7162C367.349 62.646 367.524 62.5375 367.672 62.3974C367.814 62.2511 367.924 62.0765 367.995 61.8849C368.065 61.6932 368.094 61.4889 368.08 61.2853V59.3788C368.098 59.1748 368.07 58.9694 368 58.7771C367.929 58.5848 367.818 58.4102 367.673 58.2654C367.528 58.1206 367.354 58.0091 367.161 57.9388C366.969 57.8685 366.764 57.841 366.56 57.8582H365.266V62.8059Z" fill="#F4F4F4"/>
<path d="M321.849 73.9507H325.73C326.248 73.9228 326.765 74.0033 327.25 74.1869C327.734 74.3706 328.175 74.6535 328.544 75.0174C328.904 75.3938 329.185 75.8392 329.368 76.3268C329.551 76.8143 329.634 77.334 329.611 77.8544V79.7608C329.634 80.2847 329.552 80.8079 329.369 81.2992C329.185 81.7905 328.905 82.2399 328.544 82.6205C328.173 82.981 327.732 83.2617 327.248 83.4451C326.764 83.6286 326.247 83.711 325.73 83.6872H324.323V90.3143H321.849V73.9507ZM325.617 81.3495C325.821 81.3668 326.026 81.3392 326.218 81.2689C326.411 81.1986 326.585 81.0871 326.73 80.9424C326.875 80.7976 326.986 80.6229 327.057 80.4306C327.127 80.2383 327.154 80.0329 327.137 79.8289V77.809C327.149 77.6021 327.119 77.395 327.048 77.2C326.978 77.0051 326.869 76.8262 326.729 76.6742C326.422 76.4059 326.023 76.2675 325.617 76.2884H324.323V81.3495H325.617Z" fill="#F4F4F4"/>
<path d="M336.67 90.3144L334.877 83.5057H333.583V90.3144H331.109V73.9509H335.058C335.579 73.9225 336.101 74.0027 336.589 74.1864C337.077 74.37 337.522 74.653 337.895 75.0176C338.253 75.3951 338.529 75.8412 338.709 76.3289C338.888 76.8165 338.967 77.3356 338.939 77.8545V79.6475C338.961 80.3411 338.805 81.0287 338.485 81.6447C338.202 82.2043 337.77 82.6753 337.237 83.0064L339.325 90.3144H336.67ZM333.583 81.2362H334.877C335.079 81.253 335.282 81.2274 335.474 81.161C335.665 81.0945 335.841 80.9887 335.989 80.8504C336.131 80.6991 336.24 80.5203 336.311 80.3252C336.381 80.13 336.41 79.9226 336.397 79.7156V77.8318C336.419 77.6269 336.394 77.4198 336.325 77.2255C336.257 77.0313 336.145 76.8549 335.999 76.7092C335.854 76.5635 335.677 76.4522 335.483 76.3833C335.289 76.3145 335.082 76.2898 334.877 76.3112H333.583V81.2362Z" fill="#F4F4F4"/>
<path d="M340.687 73.9512H343.183V90.3147H340.687V73.9512Z" fill="#F4F4F4"/>
<path d="M353.215 73.9512L350.514 90.3147H347.178L344.477 73.9512H346.996L348.857 86.8196L350.741 73.9512H353.215Z" fill="#F4F4F4"/>
<path d="M358.98 86.7061H356.301L355.757 90.3147H353.215L355.938 73.9512H359.252L361.975 90.3147H359.433L358.98 86.7061ZM358.639 84.3004L357.64 77.4917L356.642 84.3004H358.639Z" fill="#F4F4F4"/>
<path d="M361.589 73.9512H369.51V76.2207H366.832V90.2467H364.358V76.2888H361.635L361.589 73.9512Z" fill="#F4F4F4"/>
<path d="M370.827 73.9512H377.885V76.2207H373.346V80.7599H376.955V83.0294H373.346V87.8182H377.885V90.0878H370.827V73.9512Z" fill="#F4F4F4"/>
<path d="M321.849 92.3789H324.323V106.45H328.749V108.72H321.94L321.849 92.3789Z" fill="#F4F4F4"/>
<path d="M330.065 92.3789H332.562V108.72H330.065V92.3789Z" fill="#F4F4F4"/>
<path d="M345.952 92.3789V108.72H343.479V97.3719L341.209 108.72H339.484L337.215 97.3719V108.72H334.786V92.3789H338.281L340.551 102.842L342.616 92.3789H345.952Z" fill="#F4F4F4"/>
<path d="M348.085 92.3789H350.582V108.72H348.085V92.3789Z" fill="#F4F4F4"/>
<path d="M351.898 92.3789H359.819V94.6485H357.096V108.72H354.622V94.7166H351.898V92.3789Z" fill="#F4F4F4"/>
<path d="M361.136 92.3789H368.194V94.6485H363.655V99.1876H367.286V101.457H363.655V106.45H368.194V108.72H361.136V92.3789Z" fill="#F4F4F4"/>
<path d="M369.692 92.3766H373.641C374.162 92.339 374.685 92.4145 375.175 92.5977C375.664 92.781 376.108 93.0677 376.477 93.4383C376.845 93.8089 377.129 94.2546 377.31 94.7451C377.49 95.2356 377.562 95.7592 377.522 96.2802V104.859C377.556 105.377 377.478 105.895 377.295 106.38C377.111 106.865 376.826 107.305 376.458 107.67C376.091 108.036 375.649 108.319 375.163 108.499C374.677 108.68 374.158 108.754 373.641 108.717H369.76L369.692 92.3766ZM373.459 106.448C373.663 106.465 373.869 106.438 374.061 106.367C374.253 106.297 374.428 106.186 374.573 106.041C374.718 105.896 374.829 105.721 374.899 105.529C374.97 105.337 374.997 105.131 374.98 104.927V96.2348C374.991 96.0314 374.961 95.8279 374.89 95.6367C374.82 95.4454 374.712 95.2706 374.571 95.1227C374.425 94.9803 374.251 94.8703 374.059 94.7999C373.867 94.7295 373.663 94.7003 373.459 94.7142H372.166V106.448H373.459Z" fill="#F4F4F4"/>
<path d="M185.607 128.421V130.69H183.973V123.881H186.606C186.934 123.858 187.264 123.9 187.575 124.005C187.887 124.11 188.175 124.276 188.422 124.494C188.639 124.695 188.808 124.942 188.918 125.217C189.028 125.492 189.075 125.788 189.057 126.083C189.063 126.471 188.969 126.854 188.785 127.195C188.587 127.529 188.295 127.798 187.945 127.967C187.525 128.159 187.067 128.253 186.606 128.239L185.607 128.421ZM187.4 126.151C187.4 125.561 187.082 125.266 186.424 125.266H185.607V127.013H186.424C187.082 127.127 187.4 126.877 187.4 126.265V126.151Z" fill="#F4F4F4"/>
<path d="M198.476 125.74C198.891 125.959 199.237 126.289 199.474 126.694C199.698 127.141 199.814 127.634 199.814 128.135C199.814 128.635 199.698 129.128 199.474 129.576C199.237 129.98 198.891 130.311 198.476 130.529C198.036 130.739 197.555 130.848 197.068 130.848C196.582 130.848 196.101 130.739 195.661 130.529C195.253 130.309 194.915 129.979 194.685 129.576C194.43 129.136 194.304 128.632 194.322 128.123C194.307 127.622 194.433 127.127 194.685 126.694C194.915 126.291 195.253 125.96 195.661 125.74C196.101 125.531 196.582 125.422 197.068 125.422C197.555 125.422 198.036 125.531 198.476 125.74ZM196.206 127.17C196.09 127.298 196.002 127.449 195.947 127.613C195.892 127.777 195.872 127.951 195.888 128.123C195.872 128.299 195.892 128.476 195.946 128.644C196.001 128.812 196.089 128.967 196.206 129.099C196.303 129.208 196.422 129.294 196.555 129.353C196.688 129.412 196.832 129.441 196.978 129.44C197.127 129.442 197.274 129.412 197.411 129.354C197.548 129.295 197.671 129.208 197.772 129.099C197.991 128.823 198.096 128.474 198.067 128.123C198.095 127.779 197.989 127.438 197.772 127.17C197.671 127.061 197.548 126.974 197.411 126.916C197.274 126.857 197.127 126.828 196.978 126.83C196.715 126.851 196.471 126.973 196.297 127.17H196.206Z" fill="#F4F4F4"/>
<path d="M213.16 125.492L211.798 130.78H209.982L209.029 127.24L207.963 130.78H206.147L204.785 125.492H206.419L207.123 129.305L208.099 125.492H209.846L210.845 129.305L211.548 125.492H213.16Z" fill="#F4F4F4"/>
<path d="M223.464 128.418H219.787C219.777 128.736 219.891 129.045 220.105 129.28C220.196 129.372 220.306 129.444 220.428 129.491C220.549 129.538 220.678 129.559 220.808 129.553C221.019 129.555 221.225 129.491 221.398 129.371C221.555 129.253 221.667 129.085 221.716 128.895H223.441C223.357 129.263 223.191 129.607 222.956 129.902C222.72 130.197 222.42 130.435 222.079 130.597C221.7 130.764 221.29 130.849 220.876 130.846C220.396 130.851 219.922 130.742 219.492 130.529C219.101 130.301 218.779 129.972 218.561 129.576C218.324 129.129 218.207 128.628 218.221 128.123C218.213 127.628 218.322 127.138 218.539 126.693C218.759 126.291 219.09 125.96 219.492 125.74C219.922 125.526 220.396 125.417 220.876 125.422C221.357 125.415 221.832 125.524 222.261 125.74C222.649 125.95 222.971 126.265 223.191 126.648C223.415 127.058 223.525 127.52 223.509 127.987C223.515 128.132 223.5 128.277 223.464 128.418ZM221.58 126.875C221.383 126.692 221.122 126.594 220.853 126.602C220.578 126.595 220.311 126.693 220.105 126.875C219.906 127.084 219.793 127.359 219.787 127.646H221.852C221.864 127.506 221.846 127.364 221.799 127.231C221.752 127.098 221.677 126.977 221.58 126.875Z" fill="#F4F4F4"/>
<path d="M231.52 125.721C231.824 125.524 232.18 125.422 232.542 125.426V127.173H232.088C231.734 127.15 231.382 127.246 231.089 127.446C230.959 127.561 230.858 127.705 230.795 127.867C230.732 128.029 230.708 128.204 230.726 128.376V130.782H229.115V125.494H230.658V126.493C230.874 126.165 231.171 125.899 231.52 125.721Z" fill="#F4F4F4"/>
<path d="M242.959 128.421H239.283C239.273 128.739 239.386 129.048 239.6 129.284C239.692 129.376 239.802 129.448 239.923 129.494C240.044 129.541 240.174 129.562 240.304 129.556C240.515 129.558 240.721 129.494 240.894 129.375C241.051 129.257 241.163 129.088 241.212 128.898H242.914C242.858 129.266 242.7 129.612 242.46 129.897C242.229 130.202 241.924 130.444 241.575 130.6C241.195 130.766 240.786 130.851 240.372 130.85C239.892 130.855 239.417 130.746 238.987 130.532C238.59 130.305 238.261 129.976 238.034 129.579C237.811 129.131 237.694 128.638 237.694 128.138C237.694 127.637 237.811 127.144 238.034 126.696C238.255 126.294 238.585 125.964 238.987 125.743C239.419 125.534 239.892 125.426 240.372 125.426C240.851 125.426 241.325 125.534 241.756 125.743C242.145 125.954 242.467 126.268 242.687 126.651C242.901 127.065 243.01 127.524 243.005 127.99C243 128.135 242.984 128.279 242.959 128.421ZM241.098 126.878C240.899 126.699 240.64 126.602 240.372 126.606C240.136 126.625 239.913 126.721 239.736 126.878C239.538 127.087 239.425 127.362 239.419 127.65H241.484C241.481 127.5 241.446 127.354 241.379 127.22C241.312 127.086 241.216 126.97 241.098 126.878Z" fill="#F4F4F4"/>
<path d="M251.651 125.695C251.938 125.87 252.161 126.132 252.287 126.444V123.766H253.921V130.779H252.287V129.825C252.161 130.137 251.938 130.399 251.651 130.574C251.336 130.763 250.974 130.857 250.607 130.847C250.192 130.851 249.784 130.741 249.427 130.529C249.075 130.289 248.793 129.96 248.61 129.576C248.416 129.12 248.316 128.63 248.316 128.135C248.316 127.639 248.416 127.149 248.61 126.693C248.793 126.309 249.075 125.98 249.427 125.74C249.784 125.528 250.192 125.418 250.607 125.422C250.974 125.412 251.336 125.507 251.651 125.695ZM250.29 127.193C250.071 127.452 249.958 127.784 249.972 128.123C249.955 128.47 250.068 128.81 250.29 129.076C250.514 129.295 250.816 129.418 251.129 129.418C251.443 129.418 251.744 129.295 251.969 129.076C252.087 128.949 252.178 128.798 252.236 128.634C252.295 128.471 252.32 128.297 252.31 128.123C252.318 127.953 252.292 127.783 252.234 127.623C252.175 127.464 252.085 127.317 251.969 127.193C251.744 126.974 251.443 126.851 251.129 126.851C250.816 126.851 250.514 126.974 250.29 127.193Z" fill="#F4F4F4"/>
<path d="M270.898 125.74C271.25 125.98 271.532 126.309 271.715 126.693C271.924 127.14 272.025 127.63 272.01 128.123C272.027 128.624 271.926 129.121 271.715 129.576C271.532 129.96 271.25 130.289 270.898 130.529C270.541 130.741 270.133 130.851 269.718 130.847C269.351 130.857 268.989 130.763 268.674 130.574C268.387 130.399 268.164 130.137 268.038 129.825V130.779H266.427V123.766H268.038V126.444C268.164 126.132 268.387 125.87 268.674 125.695C268.989 125.507 269.351 125.412 269.718 125.422C270.133 125.418 270.541 125.528 270.898 125.74ZM268.356 127.193C268.138 127.452 268.024 127.784 268.038 128.123C268.021 128.47 268.134 128.81 268.356 129.076C268.465 129.188 268.596 129.276 268.74 129.334C268.885 129.393 269.04 129.421 269.196 129.417C269.352 129.425 269.508 129.399 269.653 129.34C269.799 129.281 269.929 129.191 270.035 129.076C270.15 128.947 270.238 128.796 270.292 128.633C270.347 128.469 270.368 128.295 270.353 128.123C270.366 127.955 270.344 127.785 270.29 127.625C270.235 127.465 270.149 127.318 270.035 127.193C269.932 127.088 269.808 127.005 269.671 126.951C269.535 126.896 269.388 126.87 269.241 126.875C269.079 126.862 268.917 126.883 268.764 126.938C268.611 126.993 268.472 127.08 268.356 127.193Z" fill="#F4F4F4"/>
<path d="M278.818 125.492L280.089 128.738L281.292 125.492H283.085L279.772 133.3H277.979L279.227 130.576L276.957 125.492H278.818Z" fill="#F4F4F4"/>
<path d="M299.562 129.871C299.366 130.173 299.091 130.416 298.768 130.575C298.364 130.765 297.921 130.859 297.474 130.847C296.811 130.872 296.158 130.681 295.613 130.302C295.376 130.119 295.181 129.886 295.044 129.619C294.907 129.353 294.83 129.059 294.819 128.759H296.476C296.486 128.984 296.584 129.196 296.748 129.349C296.826 129.425 296.918 129.485 297.02 129.524C297.121 129.563 297.23 129.581 297.338 129.576C297.429 129.582 297.521 129.569 297.607 129.538C297.693 129.507 297.771 129.458 297.838 129.395C297.898 129.336 297.946 129.266 297.978 129.187C298.009 129.109 298.023 129.025 298.019 128.941C298.022 128.865 298.01 128.79 297.983 128.72C297.955 128.649 297.914 128.586 297.86 128.532C297.744 128.409 297.605 128.309 297.452 128.237L296.748 127.987L295.727 127.556C295.447 127.41 295.206 127.2 295.023 126.943C294.818 126.635 294.715 126.27 294.728 125.899C294.722 125.534 294.833 125.176 295.046 124.878C295.255 124.576 295.547 124.34 295.886 124.197C296.274 124.037 296.691 123.96 297.111 123.97C297.743 123.939 298.368 124.123 298.882 124.492C299.107 124.668 299.291 124.892 299.42 125.147C299.549 125.402 299.621 125.682 299.63 125.968H297.883C297.856 125.765 297.769 125.575 297.633 125.423C297.488 125.3 297.302 125.235 297.111 125.241C297.029 125.236 296.946 125.247 296.868 125.274C296.79 125.302 296.718 125.344 296.657 125.4C296.55 125.514 296.491 125.664 296.491 125.82C296.491 125.976 296.55 126.126 296.657 126.24C296.762 126.361 296.894 126.454 297.043 126.512L297.724 126.785C298.094 126.89 298.451 127.035 298.791 127.216C299.07 127.362 299.311 127.572 299.494 127.829C299.696 128.147 299.799 128.518 299.789 128.895C299.804 129.235 299.726 129.573 299.562 129.871Z" fill="#F4F4F4"/>
<path d="M310.728 125.492V130.78H309.117V129.827C308.965 130.13 308.729 130.382 308.436 130.553C308.118 130.756 307.746 130.859 307.369 130.848C307.1 130.86 306.832 130.811 306.585 130.705C306.337 130.599 306.117 130.439 305.94 130.236C305.556 129.763 305.361 129.164 305.395 128.556V125.492H307.006V128.352C306.982 128.657 307.08 128.959 307.279 129.192C307.378 129.295 307.498 129.376 307.631 129.431C307.764 129.486 307.907 129.512 308.05 129.509C308.194 129.515 308.338 129.49 308.471 129.435C308.604 129.38 308.724 129.297 308.822 129.192C309.027 128.944 309.132 128.628 309.117 128.306V125.492H310.728Z" fill="#F4F4F4"/>
<path d="M321.441 126.036C321.811 126.515 321.997 127.112 321.963 127.716V130.78H320.352V127.897C320.363 127.745 320.343 127.591 320.292 127.447C320.241 127.302 320.161 127.17 320.057 127.058C319.962 126.962 319.849 126.887 319.724 126.836C319.599 126.785 319.465 126.76 319.33 126.763C319.183 126.758 319.037 126.784 318.9 126.838C318.763 126.893 318.639 126.976 318.536 127.08C318.331 127.328 318.226 127.644 318.241 127.966V130.78H316.63V125.492H318.241V126.445C318.392 126.136 318.629 125.876 318.922 125.696C319.246 125.51 319.615 125.416 319.989 125.424C320.261 125.412 320.533 125.46 320.784 125.566C321.035 125.672 321.26 125.833 321.441 126.036Z" fill="#F4F4F4"/>
<path d="M331.291 125.923C331.697 126.265 331.97 126.739 332.062 127.262H330.519C330.476 127.062 330.373 126.879 330.224 126.74C330.051 126.62 329.845 126.556 329.634 126.558C329.493 126.52 329.344 126.52 329.203 126.558C329.158 126.602 329.122 126.655 329.099 126.714C329.075 126.773 329.064 126.835 329.067 126.899C329.068 126.98 329.095 127.059 329.144 127.124C329.193 127.19 329.261 127.238 329.339 127.262C329.596 127.388 329.872 127.472 330.156 127.511C330.494 127.591 330.827 127.689 331.155 127.806C331.414 127.902 331.641 128.067 331.813 128.283C332.02 128.53 332.125 128.846 332.108 129.168C332.113 129.46 332.025 129.746 331.858 129.985C331.675 130.225 331.433 130.413 331.155 130.53C330.696 130.701 330.204 130.766 329.716 130.719C329.228 130.672 328.758 130.514 328.34 130.258C328.122 130.096 327.94 129.892 327.803 129.658C327.666 129.424 327.579 129.165 327.546 128.896H329.112C329.116 129 329.145 129.102 329.197 129.192C329.248 129.283 329.32 129.36 329.407 129.418C329.59 129.552 329.816 129.617 330.042 129.599C330.184 129.638 330.332 129.638 330.474 129.599C330.519 129.555 330.554 129.502 330.578 129.443C330.601 129.385 330.612 129.322 330.61 129.259C330.611 129.171 330.586 129.085 330.537 129.012C330.489 128.939 330.419 128.883 330.337 128.85C330.064 128.746 329.784 128.662 329.498 128.601C329.166 128.545 328.84 128.461 328.522 128.351C328.27 128.242 328.046 128.079 327.864 127.874C327.67 127.63 327.573 127.323 327.591 127.012C327.586 126.79 327.632 126.57 327.727 126.369C327.822 126.168 327.962 125.992 328.136 125.855C328.586 125.539 329.131 125.386 329.679 125.423C330.261 125.377 330.838 125.555 331.291 125.923Z" fill="#F4F4F4"/>
<path d="M342.593 126.035C342.963 126.514 343.149 127.11 343.115 127.715V130.779H341.504V127.896C341.515 127.743 341.495 127.59 341.444 127.446C341.393 127.301 341.313 127.169 341.209 127.057C341.114 126.961 341.001 126.885 340.876 126.835C340.751 126.784 340.617 126.759 340.483 126.761C340.335 126.757 340.189 126.783 340.052 126.837C339.915 126.892 339.791 126.974 339.688 127.079C339.483 127.327 339.378 127.643 339.393 127.964V130.779H337.782V123.766H339.393V126.444C339.545 126.135 339.781 125.875 340.074 125.695C340.398 125.507 340.767 125.413 341.141 125.422C341.413 125.41 341.685 125.459 341.936 125.565C342.187 125.671 342.412 125.832 342.593 126.035Z" fill="#F4F4F4"/>
<path d="M349.061 123.382C349.247 123.212 349.491 123.122 349.742 123.132C350.001 123.119 350.254 123.209 350.446 123.382C350.533 123.458 350.602 123.553 350.65 123.658C350.698 123.764 350.722 123.879 350.722 123.995C350.722 124.111 350.698 124.225 350.65 124.331C350.602 124.436 350.533 124.531 350.446 124.607C350.25 124.772 349.997 124.854 349.742 124.834C349.494 124.85 349.25 124.769 349.061 124.607C348.974 124.531 348.905 124.436 348.857 124.331C348.809 124.225 348.785 124.111 348.785 123.995C348.785 123.879 348.809 123.764 348.857 123.658C348.905 123.553 348.974 123.458 349.061 123.382ZM350.559 125.493V130.781H348.948V125.493H350.559Z" fill="#F4F4F4"/>
<path d="M361.227 126.036C361.614 126.507 361.809 127.107 361.771 127.716V130.78H360.137V127.897C360.156 127.593 360.059 127.293 359.865 127.058C359.766 126.96 359.649 126.884 359.521 126.833C359.392 126.783 359.254 126.759 359.116 126.763C358.972 126.757 358.828 126.782 358.695 126.837C358.562 126.892 358.442 126.975 358.344 127.08C358.239 127.201 358.158 127.341 358.107 127.493C358.057 127.645 358.037 127.806 358.049 127.966V130.78H356.415V125.492H358.049V126.445C358.201 126.136 358.437 125.876 358.73 125.696C359.046 125.511 359.408 125.417 359.774 125.424C360.046 125.412 360.318 125.46 360.569 125.566C360.821 125.672 361.045 125.833 361.227 126.036Z" fill="#F4F4F4"/>
<path d="M372.574 128.418H368.898C368.881 128.733 368.987 129.042 369.193 129.28C369.286 129.37 369.396 129.441 369.517 129.487C369.638 129.534 369.767 129.556 369.896 129.553C370.114 129.558 370.329 129.494 370.509 129.371C370.66 129.252 370.765 129.083 370.804 128.895H372.529C372.461 129.26 372.306 129.603 372.075 129.893C371.844 130.199 371.539 130.441 371.19 130.597C370.81 130.762 370.401 130.847 369.987 130.846C369.507 130.854 369.032 130.745 368.602 130.529C368.2 130.308 367.87 129.978 367.649 129.576C367.426 129.128 367.309 128.635 367.309 128.134C367.309 127.634 367.426 127.141 367.649 126.693C367.87 126.291 368.2 125.96 368.602 125.74C369.032 125.524 369.507 125.415 369.987 125.422C370.467 125.417 370.941 125.526 371.371 125.74C371.755 125.949 372.07 126.264 372.279 126.648C372.511 127.055 372.628 127.518 372.62 127.987C372.615 128.131 372.599 128.276 372.574 128.418ZM370.69 126.875C370.597 126.785 370.487 126.715 370.366 126.668C370.245 126.621 370.116 126.599 369.987 126.602C369.711 126.591 369.442 126.689 369.238 126.875C369.132 126.973 369.047 127.093 368.988 127.226C368.93 127.358 368.899 127.501 368.898 127.646H370.963C370.985 127.505 370.972 127.361 370.924 127.226C370.876 127.092 370.796 126.971 370.69 126.875Z" fill="#F4F4F4"/>
</svg>
