<svg width="50" height="51" viewBox="0 0 50 51" fill="none" xmlns="http://www.w3.org/2000/svg">
<g id="Group 49">
<path id="Vector" d="M23.44 0.75H26.56C26.6845 0.786212 26.8115 0.812955 26.94 0.83C30.7824 1.08605 34.5054 2.26987 37.79 4.28C40.8929 6.10579 43.5594 8.58756 45.6028 11.5517C47.6462 14.5158 49.0173 17.8906 49.62 21.44C49.78 22.35 49.87 23.27 50 24.19V27.31C50 27.63 49.91 27.95 49.88 28.31C49.3209 33.7178 47.0143 38.796 43.3096 42.7749C39.6049 46.7539 34.7042 49.4168 29.35 50.36C28.43 50.53 27.49 50.62 26.56 50.75H23.44C22.83 50.67 22.22 50.61 21.61 50.52C16.3684 49.8011 11.4899 47.4377 7.67677 43.7701C3.8636 40.1025 1.3123 35.3197 0.389999 30.11C0.219999 29.18 0.13 28.24 0 27.31V24.19L0.119995 23.19C0.6736 17.7605 2.98871 12.6613 6.71191 8.67091C10.4351 4.68048 15.3619 2.01803 20.74 1.09C21.63 1 22.54 0.87 23.44 0.75ZM25.05 11.32V11.49C22.99 11.49 20.92 11.49 18.85 11.49C17.1973 11.4894 15.5794 11.9651 14.19 12.86C13.1067 13.5859 12.2255 14.5751 11.6291 15.7348C11.0326 16.8944 10.7405 18.1866 10.78 19.49C10.69 23.65 10.73 27.82 10.78 31.98C10.7748 33.6053 11.2516 35.1956 12.15 36.55C12.8708 37.6364 13.855 38.5226 15.0109 39.1259C16.1667 39.7292 17.4565 40.0299 18.76 40C22.92 40.09 27.09 40.07 31.25 40C32.3618 40.0196 33.4651 39.8033 34.4872 39.3655C35.5093 38.9277 36.4271 38.2783 37.18 37.46C38.543 35.9279 39.2816 33.9403 39.25 31.89C39.33 28.48 39.34 25.06 39.34 21.64C39.34 20.64 39.27 19.64 39.17 18.64C39.0441 16.825 38.2661 15.1168 36.9797 13.8303C35.6932 12.5439 33.985 11.7659 32.17 11.64C29.77 11.41 27.4 11.41 25.05 11.32Z" fill="#F4F4F4"/>
<path id="Vector_2" d="M25 37.56C22.84 37.5 20.67 37.5 18.51 37.37C15.45 37.18 13.51 35.31 13.4 32.23C13.28 27.87 13.32 23.51 13.4 19.16C13.3857 18.2547 13.6267 17.3637 14.0954 16.5891C14.5641 15.8145 15.2415 15.1875 16.05 14.78C17.0295 14.2889 18.1145 14.0451 19.21 14.07C23.31 14.07 27.41 14.02 31.51 14.15C32.1849 14.1291 32.8569 14.2469 33.4846 14.4959C34.1122 14.7449 34.6822 15.12 35.1592 15.598C35.6362 16.0759 36.0101 16.6466 36.2579 17.2747C36.5058 17.9028 36.6222 18.5751 36.6 19.25C36.71 23.58 36.71 27.93 36.6 32.25C36.6134 32.9201 36.492 33.586 36.243 34.2082C35.994 34.8304 35.6224 35.3962 35.1504 35.872C34.6784 36.3477 34.1155 36.7237 33.4953 36.9776C32.875 37.2315 32.2101 37.3582 31.54 37.35C30.45 37.43 29.36 37.46 28.27 37.48C27.18 37.5 26.09 37.48 25 37.48V37.56ZM32.37 25.74C32.368 24.2832 31.9343 22.8597 31.1237 21.6492C30.3131 20.4388 29.162 19.4957 27.8157 18.9391C26.4694 18.3825 24.9884 18.2374 23.5597 18.5221C22.131 18.8068 20.8187 19.5085 19.7886 20.5386C18.7585 21.5687 18.0568 22.881 17.7721 24.3097C17.4874 25.7384 17.6325 27.2195 18.1891 28.5658C18.7456 29.912 19.6887 31.0632 20.8992 31.8738C22.1096 32.6843 23.5332 33.118 24.99 33.12C25.9595 33.1213 26.9197 32.9313 27.8157 32.5609C28.7117 32.1905 29.5258 31.6469 30.2113 30.9614C30.8969 30.2758 31.4405 29.4617 31.8109 28.5658C32.1813 27.6698 32.3713 26.7095 32.37 25.74ZM34.37 18.09C34.3719 17.7507 34.2734 17.4184 34.0869 17.1349C33.9004 16.8514 33.6342 16.6295 33.3219 16.4969C33.0095 16.3644 32.6649 16.3272 32.3315 16.39C31.998 16.4529 31.6906 16.6129 31.4479 16.8501C31.2052 17.0872 31.0381 17.3908 30.9676 17.7227C30.897 18.0547 30.9262 18.4 31.0515 18.7154C31.1768 19.0307 31.3926 19.3019 31.6717 19.4949C31.9508 19.6879 32.2807 19.7941 32.62 19.8C32.8487 19.8067 33.0764 19.7674 33.2897 19.6845C33.503 19.6015 33.6974 19.4766 33.8616 19.3172C34.0257 19.1577 34.1561 18.9669 34.2452 18.7561C34.3342 18.5454 34.3801 18.3188 34.38 18.09H34.37Z" fill="#F4F4F4"/>
<path id="Vector_3" d="M24.9902 21.0002C25.9389 20.9923 26.8686 21.2669 27.6607 21.7891C28.4529 22.3112 29.0718 23.0573 29.4385 23.9324C29.8052 24.8074 29.9033 25.7718 29.7201 26.7028C29.5369 27.6337 29.0809 28.4891 28.41 29.16C27.7391 29.8309 26.8837 30.2869 25.9528 30.4701C25.0218 30.6532 24.0574 30.5552 23.1824 30.1885C22.3073 29.8217 21.5612 29.2029 21.0391 28.4107C20.5169 27.6186 20.2423 26.6889 20.2502 25.7402C20.2606 24.4863 20.7634 23.2867 21.65 22.4C22.5367 21.5134 23.7363 21.0106 24.9902 21.0002Z" fill="#F4F4F4"/>
</g>
</svg>
