<svg width="50" height="51" viewBox="0 0 50 51" fill="none" xmlns="http://www.w3.org/2000/svg">
<g id="Group 50">
<path id="Vector" d="M23.44 0.75H26.56C26.6845 0.786212 26.8115 0.812955 26.94 0.83C30.7824 1.08605 34.5054 2.26987 37.79 4.28C40.8929 6.10579 43.5594 8.58756 45.6028 11.5517C47.6462 14.5158 49.0173 17.8906 49.62 21.44C49.78 22.35 49.87 23.27 50 24.19V27.31C50 27.63 49.91 27.95 49.88 28.31C49.3209 33.7178 47.0143 38.796 43.3096 42.7749C39.6049 46.7539 34.7042 49.4168 29.35 50.36C28.43 50.53 27.49 50.62 26.56 50.75H23.44C22.83 50.67 22.22 50.61 21.61 50.52C16.3684 49.8011 11.4899 47.4377 7.67677 43.7701C3.8636 40.1025 1.3123 35.3197 0.389999 30.11C0.219999 29.18 0.13 28.24 0 27.31V24.19L0.120003 23.19C0.673608 17.7605 2.98871 12.6613 6.71191 8.67091C10.4351 4.68048 15.3618 2.01803 20.74 1.09C21.63 1 22.54 0.87 23.44 0.75ZM27.19 38.53C27.19 36.95 27.19 35.42 27.19 33.9C27.19 31.83 27.19 29.76 27.19 27.7C27.2097 27.1751 27.3599 26.6635 27.627 26.2113C27.8942 25.759 28.2698 25.3806 28.72 25.11C29.1081 24.8294 29.5588 24.6478 30.0331 24.5811C30.5073 24.5144 30.9907 24.5645 31.4411 24.7271C31.8915 24.8898 32.2954 25.16 32.6177 25.5143C32.9399 25.8686 33.1707 26.2962 33.29 26.76C33.4668 27.4493 33.5541 28.1584 33.55 28.87C33.55 31.92 33.55 34.96 33.55 38V38.51H39.61C39.61 38.35 39.61 38.22 39.61 38.09C39.61 34.76 39.61 31.42 39.61 28.09C39.6019 27.4215 39.5585 26.7539 39.48 26.09C39.05 22.51 36.91 20.24 33.48 19.85C32.3236 19.6479 31.1335 19.7861 30.0541 20.2476C28.9748 20.7092 28.0527 21.4743 27.4 22.45C27.3222 22.5481 27.2387 22.6416 27.15 22.73C27.15 21.97 27.15 21.33 27.15 20.73C27.15 20.37 27.05 20.25 26.68 20.26C24.94 20.26 23.2 20.26 21.46 20.26C21.3369 20.2497 21.2131 20.2497 21.09 20.26V38.53H27.19ZM17.72 38.53C17.72 38.41 17.72 38.33 17.72 38.25C17.72 32.37 17.72 26.4933 17.72 20.62C17.72 20.24 17.55 20.21 17.25 20.21H12.07H11.65V38.53H17.72ZM11.3 14.53C11.2974 14.9668 11.3853 15.3994 11.5583 15.8005C11.7313 16.2016 11.9855 16.5625 12.305 16.8604C12.6245 17.1583 13.0023 17.3867 13.4145 17.5312C13.8267 17.6757 14.2644 17.7332 14.7 17.7C15.1355 17.7313 15.5728 17.6735 15.9851 17.5301C16.3975 17.3866 16.7762 17.1605 17.0982 16.8657C17.4202 16.5708 17.6787 16.2134 17.8578 15.8152C18.0369 15.4171 18.133 14.9865 18.14 14.55C18.074 13.6881 17.6851 12.8829 17.051 12.2955C16.4169 11.7081 15.5844 11.3817 14.72 11.3817C13.8556 11.3817 13.0231 11.7081 12.389 12.2955C11.7549 12.8829 11.366 13.6881 11.3 14.55V14.53Z" fill="#F4F4F4"/>
</g>
</svg>
