<svg width="45" height="45" viewBox="0 0 45 45" fill="none" xmlns="http://www.w3.org/2000/svg">
<g id="Group">
<path id="Vector" d="M22.481 37.8144C14.0618 37.8023 7.14256 30.8477 7.17885 22.4538C7.21514 14.0478 14.1223 7.15361 22.5173 7.1778C30.9365 7.18989 37.8558 14.1324 37.8195 22.5264C37.7711 30.9445 30.864 37.8265 22.481 37.8144ZM22.481 8.26635C14.6545 8.26635 8.25545 14.6767 8.25545 22.5022C8.25545 30.3276 14.6666 36.738 22.4931 36.7259C30.3196 36.7259 36.7308 30.3155 36.7187 22.4901C36.7187 14.6646 30.3075 8.26635 22.481 8.26635Z" fill="#181818"/>
<path id="Vector_2" d="M15.3072 42.6657C17.1217 43.3673 18.9361 43.7543 20.8232 43.8994C24.1256 44.1534 27.3312 43.718 30.4037 42.4117C30.8029 42.2424 31.1053 42.3634 31.2142 42.7141C31.3472 43.1133 31.1174 43.3189 30.7908 43.4398C26.8836 44.867 22.8796 45.4355 18.7668 44.6372C17.3031 44.3469 15.8878 43.8631 14.4604 43.4156C13.8193 43.2221 13.7467 42.9197 14.1096 42.3513C14.8233 41.2143 15.5612 40.0895 16.2628 38.9405C16.5168 38.5293 16.8192 38.4567 17.2547 38.6018C20.7869 39.7508 24.3191 39.7508 27.8513 38.6139C28.3352 38.4567 28.6981 38.5897 28.7949 38.9405C28.8916 39.255 28.6497 39.5694 28.2021 39.7146C24.682 40.8757 21.1377 40.9241 17.5934 39.9081C17.2184 39.7992 17.037 39.8718 16.8434 40.1984C16.3596 41.0087 15.8394 41.807 15.3072 42.6657Z" fill="#181818"/>
<path id="Vector_3" d="M42.6585 29.7478C43.3601 27.9094 43.7593 26.0709 43.9045 24.1841C44.1585 20.8943 43.7109 17.7133 42.4166 14.6533C42.2473 14.2541 42.3682 13.9638 42.7311 13.8429C43.1303 13.7098 43.3239 13.9517 43.4448 14.2783C44.1343 16.1047 44.6061 17.9915 44.8359 19.9388C45.2593 23.5552 44.8117 27.0506 43.469 30.4251C43.1545 31.2234 42.9005 31.296 42.1868 30.8485C41.1102 30.1711 40.0457 29.4938 38.9691 28.8044C38.4852 28.4899 38.4247 28.3448 38.6183 27.7884C39.7796 24.3534 39.7312 20.9064 38.6788 17.4593C38.6304 17.3142 38.582 17.169 38.5457 17.0239C38.4731 16.6731 38.5699 16.3707 38.9328 16.2619C39.2715 16.1651 39.5255 16.3707 39.6344 16.6973C39.8642 17.4351 40.0941 18.1729 40.2513 18.9228C40.8683 21.8498 40.7473 24.7405 39.8763 27.607C39.84 27.74 39.8763 27.994 39.9731 28.0545C40.8441 28.623 41.7271 29.1673 42.6585 29.7478Z" fill="#181818"/>
<path id="Vector_4" d="M2.38819 15.245C1.48095 17.6036 1.08176 20.0105 1.08176 22.4778C1.08176 25.1629 1.54144 27.7634 2.60593 30.2428C2.78738 30.6783 2.7148 30.9806 2.42449 31.1016C2.10997 31.2346 1.78337 31.0653 1.61401 30.6541C0.331775 27.5577 -0.17628 24.3405 0.0535547 21.0022C0.21081 18.7526 0.706769 16.5876 1.55353 14.5072C1.81966 13.8541 2.06159 13.7694 2.65432 14.1444C3.7914 14.858 4.91638 15.5837 6.06555 16.2973C6.45264 16.5392 6.54942 16.8295 6.39216 17.2528C5.12202 20.6394 5.1946 24.0502 6.21071 27.4731C6.2591 27.6303 6.31959 27.7875 6.35588 27.9448C6.45265 28.3318 6.28329 28.6947 5.96878 28.7431C5.59379 28.8035 5.36396 28.5979 5.26718 28.2593C5.08573 27.6182 4.90428 26.9772 4.77122 26.3361C4.19059 23.5301 4.17849 20.7241 5.00106 17.9543C5.26718 17.0472 5.26718 17.0472 4.44461 16.5271C3.7672 16.1038 3.10189 15.6804 2.38819 15.245Z" fill="#181818"/>
<path id="Vector_5" d="M29.8118 2.32822C27.9973 1.62671 26.1949 1.23967 24.332 1.09453C21.0297 0.828436 17.8241 1.26386 14.7515 2.57012C14.3402 2.73945 14.0741 2.64269 13.9169 2.30403C13.7838 1.98956 13.929 1.71137 14.3523 1.55414C16.2636 0.804246 18.2353 0.320447 20.2797 0.114831C23.7635 -0.235924 27.1505 0.211592 30.4045 1.52995C31.1424 1.83232 31.2271 2.07422 30.7916 2.75154C30.0658 3.90057 29.34 5.04959 28.6021 6.19862C28.4449 6.45261 28.2876 6.58566 27.9368 6.45261C24.4893 5.14635 20.9934 5.19473 17.4854 6.21071C17.3402 6.247 17.195 6.30747 17.0499 6.34376C16.6628 6.44052 16.2999 6.30747 16.2273 5.993C16.1426 5.61806 16.3483 5.36406 16.687 5.2673C17.437 5.0375 18.187 4.7956 18.9611 4.65046C21.8885 4.08199 24.7917 4.20294 27.6465 5.09797C27.7796 5.13426 28.0336 5.11007 28.0941 5.01331C28.6868 4.15456 29.2311 3.25953 29.8118 2.32822Z" fill="#181818"/>
<path id="Vector_6" d="M12.5973 36.8231C12.6094 37.3674 12.3553 37.4763 12.0408 37.5005C11.7384 37.5125 11.557 37.3311 11.5207 37.0408C11.4844 36.7627 11.7747 36.4361 12.0529 36.4966C12.2827 36.5449 12.4763 36.7506 12.5973 36.8231Z" fill="#181818"/>
<path id="Vector_7" d="M32.871 37.5121C32.5927 37.4879 32.375 37.3427 32.375 37.0162C32.375 36.6654 32.5927 36.4961 32.9193 36.4961C33.2218 36.4961 33.4274 36.6896 33.4395 37.0041C33.4516 37.3427 33.2097 37.4879 32.871 37.5121Z" fill="#181818"/>
<path id="Vector_8" d="M35.1341 9.48866C35.2792 9.68218 35.497 9.8757 35.5333 10.0813C35.5938 10.4442 35.2671 10.5772 34.9647 10.5772C34.6502 10.5893 34.4204 10.3595 34.493 10.0571C34.5413 9.83941 34.7712 9.67008 34.9163 9.47656C34.9889 9.48866 35.0615 9.48866 35.1341 9.48866Z" fill="#181818"/>
<path id="Vector_9" d="M8.53238 32.7708C8.53238 33.315 8.27834 33.436 7.97593 33.4481C7.68561 33.4602 7.47997 33.2787 7.47997 32.9764C7.46788 32.6377 7.68562 32.4079 8.01222 32.4442C8.21787 32.4684 8.41141 32.6861 8.53238 32.7708Z" fill="#181818"/>
<path id="Vector_10" d="M37.564 32.7708C37.564 33.3029 37.3221 33.436 37.0076 33.4481C36.7172 33.4481 36.5116 33.2787 36.4995 32.9764C36.4874 32.6377 36.7051 32.4079 37.0317 32.4442C37.2495 32.4684 37.443 32.6861 37.564 32.7708Z" fill="#181818"/>
<path id="Vector_11" d="M9.48828 9.94869C9.62134 9.85193 9.8028 9.63422 10.0205 9.58584C10.3471 9.52536 10.577 9.75517 10.577 10.0938C10.5891 10.4325 10.3229 10.5655 10.0447 10.5897C9.73022 10.6018 9.53667 10.4204 9.48828 9.94869Z" fill="#181818"/>
<path id="Vector_12" d="M32.3633 7.87961C32.4963 7.79494 32.6899 7.57723 32.9076 7.55304C33.2342 7.50466 33.452 7.74656 33.4399 8.08522C33.4278 8.42388 33.1738 8.54483 32.8834 8.54483C32.5447 8.54483 32.3875 8.36341 32.3633 7.87961Z" fill="#181818"/>
<path id="Vector_13" d="M34.818 35.505C34.7213 35.3599 34.5035 35.1905 34.4793 34.9849C34.4431 34.6584 34.6729 34.4648 35.0237 34.4648C35.3503 34.4769 35.5317 34.6705 35.5317 34.9849C35.5438 35.3599 35.2535 35.4324 34.818 35.505Z" fill="#181818"/>
<path id="Vector_14" d="M12.6099 7.88024C12.5978 8.41242 12.3559 8.53337 12.0414 8.53337C11.739 8.54547 11.5454 8.35195 11.5454 8.06167C11.5333 7.72301 11.751 7.4932 12.0777 7.54158C12.2954 7.58996 12.4768 7.79558 12.6099 7.88024Z" fill="#181818"/>
<path id="Vector_15" d="M37.1653 11.5205C37.2984 11.714 37.5161 11.8955 37.5524 12.1132C37.6129 12.476 37.3105 12.597 36.996 12.6091C36.6694 12.6091 36.4637 12.3913 36.5242 12.089C36.5726 11.8834 36.8024 11.7019 36.9476 11.5205C37.0202 11.5205 37.0928 11.5205 37.1653 11.5205Z" fill="#181818"/>
<path id="Vector_16" d="M8.54594 12.1131C8.50965 12.5122 8.25563 12.621 7.95321 12.6089C7.6387 12.6089 7.48145 12.4033 7.48145 12.1131C7.49354 11.7744 7.69919 11.593 8.04999 11.6051C8.3645 11.6293 8.52175 11.8228 8.54594 12.1131Z" fill="#181818"/>
<path id="Vector_17" d="M10.1668 34.3919C10.312 34.5854 10.5418 34.7668 10.566 34.9845C10.6144 35.3353 10.3241 35.4804 9.99747 35.4804C9.67086 35.4804 9.45313 35.2748 9.5257 34.9603C9.57409 34.7547 9.80393 34.5733 9.94908 34.3919C10.0217 34.3798 10.0942 34.3798 10.1668 34.3919Z" fill="#181818"/>
<path id="Vector_18" d="M21.1857 21.0386C20.6534 19.5146 20.1575 18.0874 19.6494 16.6481C19.5163 16.2731 19.3712 15.9103 19.2623 15.5354C19.1051 15.0395 19.3228 14.725 19.843 14.725C21.0647 14.7129 22.2865 14.725 23.5203 14.7129C23.8953 14.7129 24.101 14.9064 24.1977 15.2572C24.8993 17.906 25.613 20.5669 26.3146 23.2157C26.4598 23.76 26.1816 24.0502 25.613 24.0019C25.1292 23.9656 24.6574 23.9172 24.1251 23.8688C24.1735 24.0381 24.1977 24.1591 24.2461 24.28C24.863 25.9854 25.48 27.6787 26.109 29.3841C26.2179 29.6744 26.1937 29.88 25.9517 30.0614C25.6856 30.255 25.4437 30.1945 25.2138 29.9889C25.1292 29.9042 25.0566 29.8075 24.9719 29.7107C22.9276 27.1586 20.8833 24.6187 18.851 22.0667C18.7059 21.8852 18.597 21.5345 18.6696 21.353C18.7543 21.1837 19.093 21.0628 19.3349 21.0507C19.9276 21.0144 20.5204 21.0386 21.1857 21.0386ZM25.105 22.8528C24.4639 20.4943 23.8469 18.1963 23.2179 15.8982C22.2986 15.8982 21.4155 15.8982 20.472 15.8982C20.5325 16.0796 20.5808 16.2369 20.6413 16.3941C21.2099 18.0148 21.7784 19.6356 22.347 21.2684C22.5768 21.9215 22.359 22.2118 21.6695 22.2118C21.2341 22.2118 20.7865 22.2118 20.2542 22.2118C21.4881 23.7479 22.6373 25.1993 23.7864 26.6386C23.4961 25.5984 23.1332 24.5945 22.7703 23.5906C22.5647 23.0101 22.8308 22.6835 23.4477 22.7198C23.9679 22.7682 24.488 22.8044 25.105 22.8528Z" fill="#181818"/>
<path id="Vector_19" d="M30.537 13.0566C30.9845 13.0566 31.7829 13.734 31.7708 14.0484C31.7708 14.2178 31.6619 14.4959 31.5531 14.5322C31.3232 14.6048 31.0208 14.6169 30.8031 14.508C30.5732 14.3992 30.3676 14.1694 30.2345 13.9517C30.1378 13.7944 30.1015 13.5404 30.1741 13.3711C30.2345 13.2139 30.4644 13.1171 30.537 13.0566Z" fill="#181818"/>
<path id="Vector_20" d="M29.8235 32.8078C29.5574 32.6022 29.3154 32.4933 29.2065 32.2998C29.0372 32.0095 29.2428 31.8039 29.4848 31.6346C29.6541 31.5136 29.8235 31.3806 29.9928 31.2596C30.271 31.054 30.5493 31.1266 30.767 31.3564C30.9847 31.5983 30.9364 31.8765 30.7307 32.0821C30.4646 32.3361 30.1622 32.5417 29.8235 32.8078Z" fill="#181818"/>
<path id="Vector_21" d="M15.7075 12.9229C15.6591 13.0076 15.5744 13.1769 15.4535 13.3221C15.3204 13.4793 15.1389 13.6003 14.9817 13.7454C14.7277 13.9994 14.4615 13.9752 14.2196 13.7696C13.9535 13.5519 13.9535 13.2495 14.1591 13.0076C14.3648 12.7657 14.6067 12.548 14.8607 12.3666C15.2236 12.1247 15.7075 12.4029 15.7075 12.9229Z" fill="#181818"/>
<path id="Vector_22" d="M10.6016 18.1361C10.8072 17.7007 10.9282 17.3016 11.158 16.9871C11.2548 16.8541 11.6419 16.8057 11.787 16.9025C11.9443 16.9871 12.0532 17.3137 12.029 17.5072C11.9806 17.8217 11.8354 18.1482 11.654 18.4143C11.5693 18.5474 11.279 18.6441 11.1217 18.5958C10.9282 18.5353 10.783 18.3176 10.6016 18.1361Z" fill="#181818"/>
<path id="Vector_23" d="M19.7237 11.3748C19.5785 11.2418 19.3366 11.0967 19.2519 10.891C19.131 10.5766 19.3366 10.3347 19.6511 10.25C19.9051 10.1774 20.1955 10.0686 20.4374 10.1049C20.643 10.1411 20.9455 10.3226 20.9938 10.504C21.0422 10.6733 20.8729 10.9999 20.7156 11.1087C20.4737 11.2539 20.135 11.2781 19.7237 11.3748Z" fill="#181818"/>
<path id="Vector_24" d="M15.0402 31.513C15.0281 31.9121 14.6168 32.1419 14.2539 31.9121C13.9757 31.7428 13.7216 31.513 13.5281 31.259C13.4313 31.126 13.4313 30.8478 13.5039 30.6905C13.5644 30.5454 13.7942 30.4245 13.9636 30.4124C14.3385 30.364 15.0522 31.126 15.0402 31.513Z" fill="#181818"/>
<path id="Vector_25" d="M34.625 19.1762C34.6008 19.4423 34.4556 19.6479 34.129 19.6721C33.6693 19.6963 33.2943 19.1641 33.2822 18.511C33.2822 18.1965 33.5484 17.9062 33.8266 17.9062C34.2379 17.9183 34.625 18.5231 34.625 19.1762Z" fill="#181818"/>
<path id="Vector_26" d="M22.1287 35.0456C21.4392 35.0456 21.1973 34.9004 21.1973 34.4892C21.1973 34.1143 21.4634 33.957 22.1287 33.957C22.2376 33.957 22.3343 33.957 22.4432 33.957C22.8061 33.9812 23.048 34.1385 23.0601 34.5376C23.0601 34.9367 22.794 35.0335 22.4553 35.0456C22.3464 35.0456 22.2376 35.0456 22.1287 35.0456Z" fill="#181818"/>
<path id="Vector_27" d="M28.3484 33.3036C28.2758 33.4003 28.1669 33.5939 28.0097 33.7027C27.7677 33.86 27.4895 34.0172 27.1992 34.0777C27.0419 34.1019 26.7516 33.9688 26.6911 33.8237C26.6186 33.6422 26.6186 33.2794 26.7395 33.1947C27.0419 32.9649 27.4169 32.8077 27.7798 32.6867C28.058 32.6021 28.3605 32.9165 28.3484 33.3036Z" fill="#181818"/>
<path id="Vector_28" d="M32.8475 29.5061C32.5209 29.9173 32.2306 30.3043 31.8919 30.643C31.8314 30.7035 31.4927 30.5946 31.3959 30.4858C31.287 30.3527 31.2144 30.0745 31.287 29.9294C31.4322 29.627 31.6499 29.3367 31.8919 29.1069C32.0007 28.9981 32.2669 28.9739 32.4241 29.0344C32.5693 29.0706 32.666 29.2883 32.8475 29.5061Z" fill="#181818"/>
<path id="Vector_29" d="M32.7373 27.6673C32.9671 27.244 33.1123 26.8812 33.3421 26.5788C33.4268 26.4699 33.7776 26.4457 33.8986 26.5304C34.0558 26.6514 34.1889 26.9174 34.1768 27.111C34.1526 27.3891 34.0316 27.6794 33.8623 27.8971C33.7413 28.0544 33.4389 28.2116 33.2696 28.1753C33.076 28.139 32.9309 27.8609 32.7373 27.6673Z" fill="#181818"/>
<path id="Vector_30" d="M11.0611 23.7489C11.0853 24.1117 10.916 24.3415 10.5652 24.3778C10.2265 24.4141 10.0329 24.2085 9.99663 23.8698C9.97243 23.6642 9.94824 23.4465 9.94824 23.2409C9.93615 22.9022 10.0329 22.624 10.42 22.5878C10.8071 22.5636 11.0006 22.7813 11.0369 23.1562C11.049 23.3497 11.049 23.5554 11.0611 23.7489Z" fill="#181818"/>
<path id="Vector_31" d="M24.1992 34.9482C24.0782 34.803 23.8242 34.6337 23.8121 34.4523C23.8 34.2588 23.9935 33.9927 24.1629 33.8717C24.3443 33.7387 24.6225 33.7387 24.8524 33.6903C25.1669 33.6298 25.3846 33.775 25.4935 34.0652C25.6145 34.3797 25.4572 34.6216 25.1911 34.7305C24.925 34.8151 24.6225 34.8514 24.1992 34.9482Z" fill="#181818"/>
<path id="Vector_32" d="M23.0011 11.0486C22.8559 11.0365 22.6503 11.0849 22.5656 11.0123C22.3963 10.8672 22.1785 10.6495 22.1664 10.4559C22.1543 10.2987 22.4084 10.0568 22.5898 9.99634C22.8317 9.91167 23.1221 9.96005 23.4003 9.96005C23.7269 9.96005 23.9083 10.1657 23.9325 10.468C23.9688 10.7946 23.7511 10.9639 23.4608 11.0244C23.3035 11.0365 23.1463 11.0365 23.0011 11.0486Z" fill="#181818"/>
<path id="Vector_33" d="M16.8924 33.7625C16.4811 33.4964 16.1061 33.2908 15.7795 33.0247C15.7069 32.9642 15.7311 32.6256 15.8279 32.5167C15.9489 32.3716 16.2392 32.2022 16.3722 32.2506C16.6988 32.3716 17.0134 32.5772 17.2795 32.807C17.3763 32.8917 17.3763 33.1819 17.3158 33.3392C17.2674 33.4964 17.0738 33.5932 16.8924 33.7625Z" fill="#181818"/>
<path id="Vector_34" d="M17.025 12.4276C16.8314 12.2582 16.6016 12.1373 16.5411 11.968C16.4806 11.8107 16.5532 11.5084 16.6862 11.4116C16.9524 11.2181 17.2911 11.0608 17.6177 11.0004C17.7628 10.9762 18.029 11.1455 18.1015 11.3027C18.1741 11.4479 18.162 11.7744 18.0532 11.8591C17.7628 12.0889 17.4 12.222 17.025 12.4276Z" fill="#181818"/>
<path id="Vector_35" d="M28.262 11.3145C28.6612 11.5684 29.0362 11.7499 29.3386 12.0281C29.4233 12.1127 29.3749 12.4756 29.266 12.6207C29.1572 12.7538 28.8548 12.8505 28.6975 12.8021C28.4072 12.7054 28.1169 12.524 27.8991 12.3183C27.7782 12.2095 27.7419 11.9192 27.7903 11.7499C27.8387 11.5805 28.0685 11.4717 28.262 11.3145Z" fill="#181818"/>
<path id="Vector_36" d="M13.6016 14.9676C13.6137 15.4514 13.0693 16.0561 12.7185 16.0924C12.271 16.1408 11.9686 15.7779 12.1621 15.3788C12.2952 15.1006 12.5008 14.8345 12.7427 14.6531C12.8637 14.5563 13.154 14.5563 13.3113 14.6168C13.4685 14.6894 13.5532 14.895 13.6016 14.9676Z" fill="#181818"/>
<path id="Vector_37" d="M10.0215 20.9786C10.1304 20.6036 10.1545 20.2892 10.2997 20.0594C10.3965 19.9021 10.6626 19.7449 10.832 19.7691C11.0013 19.7933 11.3037 20.0352 11.2916 20.1561C11.2553 20.5432 11.1344 20.9302 10.965 21.281C10.9166 21.3898 10.5779 21.4382 10.4207 21.3898C10.2392 21.3293 10.1304 21.1116 10.0215 20.9786Z" fill="#181818"/>
<path id="Vector_38" d="M35.1084 21.777C35.1084 22.2245 34.8544 22.5753 34.564 22.5632C34.1528 22.5511 34.0318 22.285 34.0318 21.9221C34.0318 21.7286 33.9834 21.5351 33.9834 21.3416C33.9955 21.0392 34.1165 20.7973 34.4552 20.7731C34.7576 20.7489 34.9874 20.894 35.0479 21.2206C35.06 21.4262 35.0842 21.6318 35.1084 21.777Z" fill="#181818"/>
<path id="Vector_39" d="M11.8242 26.6877C11.7032 26.845 11.5823 27.1473 11.425 27.1715C11.2315 27.2078 10.9049 27.0627 10.796 26.9054C10.6266 26.6514 10.542 26.3128 10.5299 26.0104C10.5178 25.8411 10.6992 25.575 10.8565 25.5145C11.0137 25.454 11.3403 25.5508 11.4371 25.6838C11.6065 25.9499 11.679 26.3007 11.8242 26.6877Z" fill="#181818"/>
<path id="Vector_40" d="M32.5702 15.3184C32.9936 15.3184 33.6589 16.2376 33.4654 16.6246C33.3928 16.7698 33.1992 16.9149 33.0299 16.9512C32.8847 16.9754 32.667 16.8907 32.5702 16.7819C32.3888 16.5883 32.2557 16.3464 32.1468 16.1045C31.9533 15.7054 32.171 15.3184 32.5702 15.3184Z" fill="#181818"/>
<path id="Vector_41" d="M26.3023 11.6777C25.9152 11.5326 25.5765 11.4842 25.3346 11.3028C25.1894 11.1939 25.1048 10.8674 25.1653 10.686C25.2136 10.5408 25.504 10.3836 25.6854 10.3836C25.9273 10.3715 26.1814 10.5045 26.4233 10.5771C26.7257 10.6618 26.9435 10.8795 26.8346 11.1698C26.7499 11.3875 26.4717 11.5205 26.3023 11.6777Z" fill="#181818"/>
<path id="Vector_42" d="M13.1534 29.2754C12.9962 29.481 12.9115 29.6987 12.7663 29.7592C12.6212 29.8196 12.3308 29.8075 12.2341 29.6987C11.9921 29.4447 11.7865 29.1302 11.6413 28.8158C11.5809 28.6948 11.6897 28.4045 11.7986 28.3199C11.9438 28.211 12.2825 28.1505 12.355 28.2352C12.6575 28.5255 12.8752 28.9004 13.1534 29.2754Z" fill="#181818"/>
<path id="Vector_43" d="M34.8423 24.3527C34.7939 24.5825 34.7334 24.8244 34.6971 25.0542C34.6608 25.3808 34.4431 25.5017 34.1649 25.4655C33.8504 25.4292 33.6447 25.2236 33.6689 24.8849C33.681 24.6309 33.7657 24.389 33.8262 24.1471C33.8988 23.8689 34.0681 23.6875 34.3826 23.748C34.7092 23.7963 34.8665 24.002 34.8423 24.3527Z" fill="#181818"/>
<path id="Vector_44" d="M19.6139 34.8156C19.2268 34.6826 18.876 34.6221 18.5857 34.4528C18.4526 34.3802 18.3316 34.0778 18.38 33.9327C18.4284 33.7633 18.6945 33.5214 18.8276 33.5456C19.1905 33.594 19.5534 33.7271 19.88 33.9085C20.0131 33.981 20.0977 34.2955 20.0494 34.4528C20.001 34.5979 19.759 34.6947 19.6139 34.8156Z" fill="#181818"/>
</g>
</svg>
