<svg width="45" height="45" viewBox="0 0 45 45" fill="none" xmlns="http://www.w3.org/2000/svg">
<g id="Group">
<path id="Vector" d="M16.8002 38.2992C17.1252 38.5992 17.4253 38.8617 17.7128 39.1492C18.1128 39.5616 18.1128 39.9366 17.7128 40.3366C16.2626 41.7991 14.8 43.2616 13.3373 44.7115C12.9123 45.1365 12.5373 45.0865 12.0497 44.599C8.98689 41.5366 5.92407 38.4867 2.87375 35.4243C2.03616 34.5868 1.19858 33.7493 0.36099 32.8993C-0.114059 32.4118 -0.12656 32.0618 0.36099 31.5744C1.76114 30.1744 3.16128 28.7619 4.57393 27.362C5.09898 26.837 5.43652 26.837 5.96157 27.3745C9.0994 30.5119 12.2372 33.6493 15.3751 36.7867C15.5001 36.9117 15.5876 37.0992 15.7001 37.2867C16.8752 36.1617 18.1753 35.9617 19.5755 35.9742C23.4634 36.0117 27.3513 35.9617 31.2392 35.9992C33.4019 36.0242 35.0896 35.1743 36.3147 33.4243C38.54 30.2619 40.7402 27.0745 42.9404 23.8871C43.128 23.6246 43.2655 23.3121 43.3655 23.0121C43.6905 22.0246 43.403 21.1996 42.5779 20.6871C41.7653 20.1872 40.7652 20.2997 40.0401 21.0121C38.7025 22.3371 37.3648 23.6871 36.0272 25.0245C35.9522 25.0995 35.8772 25.1745 35.7897 25.262C35.3396 25.712 34.9146 25.7495 34.5771 25.3995C34.2395 25.0495 34.2895 24.6495 34.7146 24.212C35.7522 23.1746 36.7898 22.1371 37.8274 21.0996C38.2649 20.6621 38.69 20.1872 39.165 19.7872C40.3402 18.7997 41.6778 18.6247 43.0529 19.2872C44.3781 19.9247 45.0156 21.0371 44.9656 22.5121C44.9406 23.3246 44.6406 24.0746 44.1781 24.737C41.9778 27.9245 39.7901 31.1244 37.5399 34.2743C35.9897 36.4492 33.8645 37.5492 31.1392 37.5242C27.0513 37.4867 22.9508 37.5117 18.8629 37.5117C18.1253 37.4992 17.4378 37.6617 16.8002 38.2992ZM16.0376 39.8241C12.4122 36.1867 8.78687 32.5618 5.2365 29.0119C4.16139 30.0869 3.03627 31.2119 2.01116 32.2493C5.59904 35.8367 9.22441 39.4617 12.8123 43.0616C13.8749 41.9741 14.9875 40.8616 16.0376 39.8241Z" fill="#181818"/>
<path id="Vector_2" d="M22.4755 2.85039e-05C27.9636 -0.0124712 32.4516 4.08742 32.9516 9.67478C33.4142 14.8996 29.8638 19.712 24.5757 20.787C17.825 22.1619 11.5744 16.7246 12.0119 9.84977C12.1244 8.12482 12.6245 6.51236 13.5371 5.0374C13.8621 4.49991 14.2747 4.34991 14.6872 4.59991C15.0747 4.8499 15.1247 5.26239 14.8247 5.78738C13.1495 8.6998 12.9995 11.6872 14.5247 14.6871C16.2874 18.1371 20.2128 20.062 23.9757 19.387C27.9511 18.6745 30.9389 15.5496 31.4014 11.6247C32.0765 5.98737 27.5885 1.1875 21.913 1.52499C20.1128 1.62499 18.4751 2.24997 17.0249 3.34994C16.8999 3.44994 16.7874 3.54994 16.6499 3.63743C16.2874 3.86243 15.8748 3.78743 15.6498 3.46244C15.4248 3.12495 15.4248 2.76246 15.7373 2.48746C16.0373 2.21247 16.3624 1.97498 16.6999 1.74998C18.4126 0.612512 20.4503 2.85039e-05 22.4755 2.85039e-05Z" fill="#181818"/>
<path id="Vector_3" d="M21.9508 23.9991C24.6511 23.9991 27.3514 23.9741 30.0517 24.0116C32.1769 24.0366 33.8146 25.7991 33.7396 27.9115C33.6771 29.7865 32.1144 31.4364 30.2392 31.4739C27.4139 31.5239 24.5886 31.4989 21.7633 31.4864C21.2758 31.4864 20.9882 31.1864 21.0007 30.7365C21.0007 30.2865 21.2883 29.999 21.7883 29.999C23.476 29.9865 25.1637 29.999 26.8514 29.999C27.864 29.999 28.8766 29.999 29.9017 29.999C31.2768 29.999 32.2644 29.049 32.2644 27.749C32.2644 26.4491 31.2768 25.5116 29.9017 25.4991C29.0016 25.4991 28.089 25.4991 27.1889 25.4991C22.976 25.4991 18.7505 25.5241 14.5376 25.4866C12.6249 25.4741 11.0247 26.0866 9.68706 27.424C9.1245 27.9865 8.73696 28.0365 8.36192 27.649C7.98689 27.2615 8.0869 26.8741 8.67446 26.3116C10.3371 24.7366 12.2998 23.9491 14.6126 23.9866C17.0378 24.0366 19.4881 23.9991 21.9508 23.9991Z" fill="#181818"/>
<path id="Vector_4" d="M23.2507 4.42532C23.2507 4.45032 23.2507 4.48782 23.2507 4.51282C23.1632 5.05031 23.3132 5.3753 23.8883 5.63779C24.9009 6.10028 25.4134 6.98776 25.4885 8.10023C25.526 8.62521 25.2509 8.96271 24.8134 9.0002C24.3383 9.0377 24.0383 8.75021 23.9883 8.20023C23.9008 7.31275 23.2382 6.70026 22.4131 6.75026C21.613 6.80026 20.988 7.46274 21.0005 8.27522C21.013 9.1002 21.6381 9.71269 22.5006 9.75019C24.0633 9.82518 25.2009 10.8252 25.4509 12.3251C25.676 13.6626 24.9009 14.9875 23.5132 15.55C23.2757 15.65 23.2132 15.7625 23.2257 16C23.2382 16.4 23.2382 16.8125 23.2257 17.2125C23.2132 17.7 22.9257 18 22.4756 18C22.0381 18 21.7506 17.7125 21.7256 17.225C21.7256 17.175 21.7131 17.125 21.7256 17.0875C21.8381 16.225 21.7131 15.5875 20.763 15.1625C19.9254 14.7876 19.5628 13.8876 19.4878 12.9501C19.4503 12.4126 19.7504 12.0501 20.1879 12.0251C20.6129 12.0001 20.9255 12.3126 20.9755 12.8251C21.0755 13.7251 21.7131 14.3001 22.5631 14.2626C23.3382 14.2251 23.9633 13.5751 23.9758 12.7876C23.9883 11.9501 23.3632 11.3126 22.4631 11.2626C20.913 11.1876 19.7879 10.2127 19.5128 8.73771C19.2628 7.37525 20.0254 6.05028 21.438 5.4628C21.6881 5.3628 21.7256 5.2378 21.7256 5.01281C21.7131 4.63782 21.7131 4.26283 21.7256 3.88784C21.7381 3.31285 21.9881 3.01286 22.4631 3.00036C22.9382 2.98786 23.2132 3.30035 23.2257 3.86284C23.2507 4.05033 23.2507 4.23783 23.2507 4.42532Z" fill="#181818"/>
</g>
</svg>
