<svg width="134" height="50" viewBox="0 0 134 50" fill="none" xmlns="http://www.w3.org/2000/svg">
<g id="Group 2">
<g id="Group 3">
<path id="Vector" d="M96.4106 12.3491H92.6534C91.2411 12.3491 90.0963 13.494 90.0963 14.9062V19.4557C90.0963 20.868 91.2411 22.0129 92.6534 22.0129H96.4106C97.8229 22.0129 98.9677 20.868 98.9677 19.4557V14.9062C98.9677 13.494 97.8229 12.3491 96.4106 12.3491Z" fill="#FF860D"/>
<path id="Vector_2" d="M105.972 12.4434H102.215C100.803 12.4434 99.658 13.5882 99.658 15.0005V19.55C99.658 20.9622 100.803 22.1071 102.215 22.1071H105.972C107.385 22.1071 108.53 20.9622 108.53 19.55V15.0005C108.53 13.5882 107.385 12.4434 105.972 12.4434Z" fill="#FF860D"/>
<path id="Vector_3" d="M96.4106 22.6011H92.6534C91.2411 22.6011 90.0963 23.7459 90.0963 25.1582V28.0448C90.0963 29.457 91.2411 30.6019 92.6534 30.6019H96.4106C97.8229 30.6019 98.9677 29.457 98.9677 28.0448V25.1582C98.9677 23.7459 97.8229 22.6011 96.4106 22.6011Z" fill="#FF860D"/>
<path id="Vector_4" d="M105.972 22.6873H102.215C100.803 22.6873 99.658 23.8321 99.658 25.2444V28.1309C99.658 29.5432 100.803 30.6881 102.215 30.6881H105.972C107.385 30.6881 108.53 29.5432 108.53 28.1309V25.2444C108.53 23.8321 107.385 22.6873 105.972 22.6873Z" fill="#FF860D"/>
<path id="Vector_5" d="M20.395 14.8275L20.7794 15.1099V12.4744C20.7747 13.274 20.645 14.068 20.395 14.8275Z" fill="#181818"/>
<path id="Vector_6" d="M25.6661 11.4627C25.4354 8.81058 24.3674 6.30053 22.6164 4.29533C20.8653 2.29013 18.5221 0.893651 15.9252 0.307745C13.3284 -0.27816 10.6125 -0.0231441 8.17011 1.03594C5.72773 2.09501 3.68537 3.90329 2.33824 6.1994C2.00045 6.77819 1.71182 7.3843 1.47541 8.01135C1.41215 8.37117 1.39633 8.73773 1.42835 9.10166C1.53181 10.0547 1.98077 10.9369 2.69038 11.5815C3.4 12.2261 4.32112 12.5884 5.27972 12.6001H5.59348V12.4746C5.59245 11.3273 5.85169 10.1947 6.35168 9.16214C6.85167 8.12955 7.57939 7.22383 8.48005 6.51316C9.14403 5.97899 9.89133 5.55764 10.692 5.26597C11.5644 4.96629 12.4841 4.82807 13.406 4.85809C15.3953 4.94337 17.2739 5.79719 18.6462 7.23978C20.0186 8.68237 20.7777 10.6012 20.7637 12.5922V15.1101L20.395 14.8277C18.284 13.3477 15.7684 12.5538 13.1903 12.5538C10.6122 12.5538 8.09666 13.3477 5.98567 14.8277L5.61701 15.1023C4.18532 16.0511 2.96364 17.2838 2.02759 18.7238C1.09153 20.1639 0.461028 21.7808 0.175111 23.4744C-0.110806 25.168 -0.0460476 26.9023 0.365369 28.5698C0.776785 30.2374 1.5261 31.8028 2.56694 33.169C3.60778 34.5353 4.91799 35.6734 6.41644 36.5128C7.91489 37.3523 9.56971 37.8752 11.2784 38.0493C12.9872 38.2234 14.7134 38.0448 16.3504 37.5248C17.9873 37.0047 19.5001 36.1542 20.795 35.0259C20.794 35.3483 20.8565 35.6678 20.9789 35.966C21.1013 36.2643 21.2813 36.5355 21.5086 36.7642C21.7358 36.993 22.0059 37.1747 22.3034 37.299C22.6009 37.4233 22.9199 37.4879 23.2423 37.4889H25.7053V12.4746C25.7053 12.1137 25.6896 11.7843 25.6661 11.4627ZM13.1864 32.6413C11.6869 32.6398 10.2215 32.1938 8.97531 31.3597C7.72915 30.5257 6.75817 29.341 6.18504 27.9553C5.61192 26.5696 5.46237 25.0452 5.7553 23.5745C6.04822 22.1039 6.77047 20.7531 7.83079 19.6928C8.89111 18.6325 10.2419 17.9102 11.7126 17.6173C13.1832 17.3244 14.7076 17.4739 16.0933 18.047C17.479 18.6202 18.6637 19.5911 19.4978 20.8373C20.3318 22.0835 20.7778 23.5489 20.7793 25.0484C20.7814 26.0468 20.5865 27.0359 20.2059 27.9589C19.8252 28.8819 19.2663 29.7208 18.561 30.4276C17.8557 31.1343 17.018 31.695 16.0957 32.0775C15.1735 32.4601 14.1849 32.657 13.1864 32.657V32.6413Z" fill="#181818"/>
<path id="Vector_7" d="M25.6112 15.1101H20.6774V35.4259H25.6112V15.1101Z" fill="#181818"/>
<path id="Vector_8" d="M40.8912 12.7413C38.1381 12.7384 35.4639 13.6612 33.2983 15.3612V12.3491H28.3644V50C29.673 50 30.9279 49.4802 31.8532 48.555C32.7785 47.6297 33.2983 46.3747 33.2983 45.0662V34.775C34.8448 35.9832 36.6576 36.8045 38.5857 37.1706C40.5138 37.5368 42.5014 37.4371 44.3832 36.8799C46.265 36.3227 47.9865 35.3241 49.4044 33.9672C50.8223 32.6104 51.8957 30.9344 52.5351 29.079C53.1745 27.2235 53.3615 25.2422 53.0805 23.2998C52.7995 21.3575 52.0587 19.5104 50.9196 17.9122C49.7806 16.314 48.2763 15.011 46.532 14.1116C44.7877 13.2121 42.8538 12.7424 40.8912 12.7413ZM40.8912 32.6571C39.3895 32.6571 37.9215 32.2118 36.6728 31.3774C35.4242 30.5431 34.451 29.3573 33.8763 27.9698C33.3016 26.5824 33.1512 25.0557 33.4442 23.5828C33.7372 22.11 34.4603 20.757 35.5222 19.6951C36.5841 18.6332 37.937 17.9101 39.4099 17.6171C40.8828 17.3241 42.4095 17.4745 43.7969 18.0492C45.1843 18.6239 46.3702 19.5971 47.2045 20.8457C48.0388 22.0944 48.4841 23.5624 48.4841 25.0641C48.4841 27.0779 47.6842 29.0092 46.2602 30.4332C44.8363 31.8571 42.905 32.6571 40.8912 32.6571Z" fill="#181818"/>
<path id="Vector_9" d="M68.5019 12.7413C65.7433 12.7349 63.0631 13.6578 60.8932 15.3612V12.3491H55.9594V50C57.2652 50 58.5178 49.4824 59.4426 48.5605C60.3675 47.6386 60.8891 46.3877 60.8932 45.0819V34.775C62.4398 35.9832 64.2526 36.8045 66.1807 37.1706C68.1087 37.5368 70.0964 37.4371 71.9782 36.8799C73.86 36.3227 75.5815 35.3241 76.9994 33.9672C78.4173 32.6104 79.4906 30.9344 80.1301 29.079C80.7695 27.2235 80.9564 25.2422 80.6755 23.2998C80.3945 21.3575 79.6536 19.5104 78.5146 17.9122C77.3756 16.314 75.8713 15.011 74.127 14.1116C72.3826 13.2121 70.4487 12.7424 68.4862 12.7413H68.5019ZM68.5019 32.6571C67.0001 32.6571 65.5321 32.2118 64.2835 31.3774C63.0348 30.5431 62.0616 29.3573 61.4869 27.9698C60.9122 26.5824 60.7619 25.0557 61.0548 23.5828C61.3478 22.11 62.071 20.757 63.1329 19.6951C64.1947 18.6332 65.5477 17.9101 67.0206 17.6171C68.4934 17.3241 70.0201 17.4745 71.4076 18.0492C72.795 18.6239 73.9808 19.5971 74.8152 20.8457C75.6495 22.0944 76.0948 23.5624 76.0948 25.0641C76.0948 27.0779 75.2948 29.0092 73.8709 30.4332C72.4469 31.8571 70.5156 32.6571 68.5019 32.6571Z" fill="#181818"/>
<path id="Vector_10" d="M88.347 12.3491V37.5752H83.4132V17.2751C83.4153 15.9679 83.936 14.715 84.8611 13.7914C85.7861 12.8679 87.0399 12.3491 88.347 12.3491Z" fill="#181818"/>
<path id="Vector_11" d="M108.624 32.657C108.624 33.9655 108.104 35.2205 107.179 36.1457C106.253 37.071 104.998 37.5908 103.69 37.5908H83.3583V32.657H108.624Z" fill="#181818"/>
<path id="Vector_12" d="M112.922 17.2203H111.996L111.816 18.4675H110.953L111.895 12.812H113.04L113.981 18.4675H113.11L112.922 17.2203ZM112.812 16.4359L112.459 14.0827L112.114 16.4359H112.812Z" fill="#181818"/>
<path id="Vector_13" d="M118.342 12.812V18.4675H117.479V14.5926L116.695 18.4675H116.099L115.315 14.5926V18.4675H114.475V12.812H115.683L116.428 16.4281L117.142 12.812H118.342Z" fill="#181818"/>
<path id="Vector_14" d="M120.766 17.2203H119.848L119.66 18.4675H118.805L119.723 12.812H120.876L121.809 18.4675H120.939L120.766 17.2203ZM120.656 16.4359L120.303 14.0827L119.958 16.4359H120.656Z" fill="#181818"/>
<path id="Vector_15" d="M124.649 13.5415L123.033 17.6596H124.649V18.444H122.076V17.7223L123.692 13.5964H122.076V12.812H124.649V13.5415Z" fill="#181818"/>
<path id="Vector_16" d="M125.214 12.812H125.998V18.4675H125.214V12.812Z" fill="#181818"/>
<path id="Vector_17" d="M126.782 12.812H127.732L128.822 16.6085V12.812H129.661V18.4675H128.743L127.606 14.8279V18.444H126.782V12.812Z" fill="#181818"/>
<path id="Vector_18" d="M132.203 14.5768V14.0983C132.212 13.9466 132.161 13.7973 132.061 13.6826C132.012 13.634 131.953 13.5963 131.888 13.5719C131.823 13.5476 131.754 13.5372 131.685 13.5414C131.615 13.5375 131.544 13.5481 131.478 13.5724C131.412 13.5966 131.352 13.6341 131.301 13.6826C131.206 13.8 131.159 13.948 131.167 14.0983V17.181C131.159 17.3288 131.207 17.4742 131.301 17.5888C131.35 17.6399 131.41 17.6796 131.476 17.7054C131.543 17.7311 131.614 17.7422 131.685 17.7379C131.755 17.7426 131.825 17.7317 131.89 17.7059C131.955 17.6801 132.014 17.6401 132.061 17.5888C132.111 17.5337 132.149 17.4692 132.173 17.3991C132.197 17.3291 132.207 17.2549 132.203 17.181V16.1848H131.685V15.4004H133.058V17.181C133.066 17.3627 133.036 17.5441 132.971 17.7141C132.907 17.884 132.808 18.0389 132.681 18.1693C132.406 18.4119 132.052 18.5458 131.685 18.5458C131.318 18.5458 130.964 18.4119 130.689 18.1693C130.561 18.0393 130.461 17.8847 130.395 17.7147C130.329 17.5448 130.298 17.3632 130.304 17.181V14.0983C130.29 13.9088 130.315 13.7183 130.378 13.5389C130.44 13.3595 130.539 13.195 130.669 13.0556C130.798 12.9162 130.955 12.8051 131.129 12.729C131.303 12.653 131.491 12.6138 131.681 12.6138C131.871 12.6138 132.059 12.653 132.233 12.729C132.407 12.8051 132.564 12.9162 132.693 13.0556C132.822 13.195 132.922 13.3595 132.984 13.5389C133.047 13.7183 133.072 13.9088 133.058 14.0983V14.5768H132.203Z" fill="#181818"/>
<path id="Vector_19" d="M111.236 19.1811H112.577C112.756 19.1728 112.934 19.2013 113.101 19.2647C113.269 19.3281 113.421 19.4251 113.55 19.5497C113.674 19.6798 113.771 19.8338 113.834 20.0023C113.898 20.1708 113.926 20.3504 113.918 20.5302V21.197C113.926 21.3768 113.898 21.5564 113.834 21.7249C113.771 21.8934 113.674 22.0474 113.55 22.1775C113.422 22.3032 113.27 22.401 113.102 22.4645C112.935 22.528 112.756 22.5558 112.577 22.5461H112.091V24.8444H111.236V19.1811ZM112.538 21.7382C112.678 21.7454 112.816 21.6976 112.922 21.6049C112.971 21.5523 113.008 21.4905 113.033 21.4231C113.057 21.3557 113.067 21.2842 113.063 21.2127V20.5145C113.069 20.444 113.06 20.3731 113.035 20.3066C113.011 20.2401 112.973 20.1798 112.923 20.1297C112.873 20.0797 112.812 20.0412 112.746 20.0168C112.679 19.9925 112.608 19.983 112.538 19.989H112.091V21.7382H112.538Z" fill="#181818"/>
<path id="Vector_20" d="M114.742 24.5465C114.615 24.4162 114.516 24.2612 114.451 24.0913C114.387 23.9213 114.357 23.7399 114.365 23.5582V20.4677C114.357 20.2859 114.387 20.1045 114.451 19.9346C114.516 19.7646 114.615 19.6097 114.742 19.4793C115.017 19.2367 115.371 19.1028 115.738 19.1028C116.105 19.1028 116.459 19.2367 116.734 19.4793C116.861 19.6097 116.96 19.7646 117.025 19.9346C117.089 20.1045 117.119 20.2859 117.111 20.4677V23.5582C117.119 23.7399 117.089 23.9213 117.025 24.0913C116.96 24.2612 116.861 24.4162 116.734 24.5465C116.459 24.7892 116.105 24.923 115.738 24.923C115.371 24.923 115.017 24.7892 114.742 24.5465ZM116.115 23.9739C116.214 23.8592 116.265 23.7099 116.256 23.5582V20.4677C116.261 20.3937 116.251 20.3195 116.226 20.2495C116.202 20.1794 116.164 20.1149 116.115 20.0598C116.067 20.0085 116.008 19.9685 115.943 19.9427C115.878 19.9169 115.808 19.906 115.738 19.9107C115.667 19.9064 115.596 19.9175 115.53 19.9433C115.463 19.969 115.403 20.0087 115.354 20.0598C115.26 20.1745 115.213 20.3199 115.22 20.4677V23.5582C115.212 23.7084 115.26 23.8564 115.354 23.9739C115.405 24.0223 115.465 24.0598 115.531 24.0841C115.597 24.1084 115.668 24.1189 115.738 24.1151C115.807 24.1193 115.877 24.1088 115.941 24.0845C116.006 24.0602 116.065 24.0225 116.115 23.9739Z" fill="#181818"/>
<path id="Vector_21" d="M121.966 19.1812L121.127 24.8445H120.186L119.723 21.103L119.268 24.8289H118.327L117.495 19.1655H118.358L118.829 22.9934L119.291 19.1655H120.17L120.641 22.9934L121.103 19.1655L121.966 19.1812Z" fill="#181818"/>
<path id="Vector_22" d="M122.429 19.1812H124.868V19.9655H123.3V21.5343H124.547V22.3187H123.3V23.9738H124.868V24.7582H122.429V19.1812Z" fill="#181818"/>
<path id="Vector_23" d="M127.308 24.8443L126.688 22.4911H126.241V24.8443H125.386V19.181H126.727C126.907 19.1731 127.087 19.2016 127.255 19.265C127.424 19.3284 127.578 19.4252 127.708 19.5496C127.83 19.6811 127.925 19.8355 127.986 20.0038C128.048 20.1721 128.076 20.351 128.069 20.5301V21.1577C128.073 21.3945 128.019 21.6287 127.912 21.8401C127.818 22.0365 127.668 22.2004 127.48 22.3107L128.194 24.8443H127.308ZM126.241 21.7067H126.688C126.759 21.7106 126.829 21.7 126.895 21.6757C126.961 21.6515 127.021 21.614 127.073 21.5655C127.122 21.515 127.16 21.4546 127.184 21.3884C127.208 21.3222 127.219 21.2516 127.214 21.1812V20.5223C127.22 20.4518 127.21 20.3808 127.186 20.3143C127.162 20.2479 127.123 20.1875 127.073 20.1375C127.023 20.0874 126.963 20.0489 126.896 20.0246C126.83 20.0003 126.759 19.9908 126.688 19.9967H126.241V21.7067Z" fill="#181818"/>
<path id="Vector_24" d="M111.236 25.5583H112.577C112.756 25.5486 112.935 25.5764 113.102 25.6399C113.27 25.7034 113.422 25.8012 113.55 25.9269C113.674 26.057 113.771 26.2109 113.834 26.3795C113.898 26.548 113.926 26.7276 113.918 26.9074V27.5663C113.926 27.7474 113.898 27.9282 113.835 28.098C113.771 28.2678 113.674 28.4231 113.55 28.5547C113.421 28.6793 113.269 28.7763 113.101 28.8397C112.934 28.9031 112.756 28.9315 112.577 28.9233H112.091V31.2137H111.236V25.5583ZM112.538 28.1154C112.608 28.1214 112.679 28.1118 112.746 28.0875C112.812 28.0632 112.873 28.0247 112.923 27.9747C112.973 27.9246 113.011 27.8643 113.035 27.7978C113.06 27.7313 113.069 27.6604 113.063 27.5898V26.8917C113.067 26.8202 113.057 26.7487 113.033 26.6813C113.008 26.6139 112.971 26.5521 112.922 26.4995C112.816 26.4068 112.678 26.359 112.538 26.3662H112.091V28.1154H112.538Z" fill="#181818"/>
<path id="Vector_25" d="M116.358 31.2138L115.738 28.8606H115.291V31.2138H114.436V25.5583H115.801C115.981 25.5485 116.161 25.5762 116.33 25.6397C116.499 25.7032 116.652 25.801 116.781 25.927C116.905 26.0574 117 26.2116 117.062 26.3802C117.124 26.5487 117.152 26.7281 117.142 26.9075V27.5271C117.15 27.7669 117.096 28.0045 116.985 28.2174C116.887 28.4108 116.738 28.5736 116.554 28.688L117.276 31.2138H116.358ZM115.291 28.0762H115.738C115.808 28.082 115.878 28.0732 115.944 28.0502C116.011 28.0273 116.071 27.9907 116.122 27.9429C116.172 27.8906 116.209 27.8288 116.234 27.7614C116.258 27.6939 116.268 27.6222 116.264 27.5507V26.8996C116.271 26.8288 116.263 26.7572 116.239 26.6901C116.215 26.623 116.176 26.562 116.126 26.5116C116.076 26.4613 116.015 26.4228 115.948 26.399C115.881 26.3752 115.809 26.3667 115.738 26.3741H115.291V28.0762Z" fill="#181818"/>
<path id="Vector_26" d="M117.746 25.5583H118.609V31.2138H117.746V25.5583Z" fill="#181818"/>
<path id="Vector_27" d="M122.076 25.5583L121.143 31.2138H119.99L119.056 25.5583H119.927L120.57 30.0059L121.221 25.5583H122.076Z" fill="#181818"/>
<path id="Vector_28" d="M124.068 29.9666H123.143L122.955 31.2138H122.076L123.017 25.5583H124.163L125.104 31.2138H124.225L124.068 29.9666ZM123.951 29.1352L123.606 26.782L123.26 29.1352H123.951Z" fill="#181818"/>
<path id="Vector_29" d="M124.97 25.5583H127.708V26.3427H126.782V31.1903H125.927V26.3663H124.986L124.97 25.5583Z" fill="#181818"/>
<path id="Vector_30" d="M128.163 25.5583H130.602V26.3427H129.034V27.9115H130.281V28.6959H129.034V30.351H130.602V31.1354H128.163V25.5583Z" fill="#181818"/>
<path id="Vector_31" d="M111.236 31.9275H112.091V36.7907H113.62V37.5751H111.267L111.236 31.9275Z" fill="#181818"/>
<path id="Vector_32" d="M114.075 31.9275H114.938V37.5751H114.075V31.9275Z" fill="#181818"/>
<path id="Vector_33" d="M119.566 31.9275V37.5751H118.711V33.6532L117.927 37.5751H117.33L116.546 33.6532V37.5751H115.707V31.9275H116.915L117.699 35.5435L118.413 31.9275H119.566Z" fill="#181818"/>
<path id="Vector_34" d="M120.303 31.9275H121.166V37.5751H120.303V31.9275Z" fill="#181818"/>
<path id="Vector_35" d="M121.621 31.9275H124.359V32.7119H123.417V37.5751H122.562V32.7354H121.621V31.9275Z" fill="#181818"/>
<path id="Vector_36" d="M124.814 31.9275H127.253V32.7119H125.684V34.2807H126.939V35.0651H125.684V36.7907H127.253V37.5751H124.814V31.9275Z" fill="#181818"/>
<path id="Vector_37" d="M127.771 31.9276H129.136C129.316 31.9146 129.497 31.9407 129.666 32.004C129.835 32.0673 129.988 32.1664 130.116 32.2945C130.243 32.4226 130.341 32.5766 130.404 32.7462C130.466 32.9157 130.491 33.0966 130.477 33.2767V36.2417C130.489 36.4205 130.462 36.5998 130.398 36.7673C130.335 36.9349 130.236 37.087 130.109 37.2133C129.982 37.3397 129.83 37.4373 129.662 37.4998C129.494 37.5622 129.314 37.5879 129.136 37.5752H127.794L127.771 31.9276ZM129.073 36.7908C129.143 36.7968 129.214 36.7872 129.281 36.7629C129.347 36.7386 129.408 36.7001 129.458 36.6501C129.508 36.6 129.546 36.5397 129.571 36.4732C129.595 36.4067 129.604 36.3358 129.598 36.2653V33.261C129.602 33.1907 129.592 33.1204 129.567 33.0543C129.543 32.9882 129.506 32.9278 129.457 32.8767C129.407 32.8274 129.346 32.7894 129.28 32.7651C129.214 32.7408 129.143 32.7307 129.073 32.7355H128.626V36.7908H129.073Z" fill="#181818"/>
<path id="Vector_38" d="M64.1484 44.3838V45.1682H63.5837V42.815H64.4936C64.607 42.8068 64.7209 42.8213 64.8287 42.8576C64.9364 42.894 65.0358 42.9515 65.1211 43.0268C65.1961 43.0963 65.2547 43.1816 65.2927 43.2766C65.3307 43.3715 65.3471 43.4738 65.3407 43.5758C65.3427 43.7099 65.3103 43.8422 65.2466 43.9602C65.1782 44.0757 65.0772 44.1685 64.9564 44.2269C64.8114 44.2935 64.653 44.3257 64.4936 44.321L64.1484 44.3838ZM64.7681 43.5994C64.7681 43.3954 64.6583 43.2935 64.4308 43.2935H64.1484V43.8974H64.4308C64.6583 43.9367 64.7681 43.8504 64.7681 43.6386V43.5994Z" fill="#181818"/>
<path id="Vector_39" d="M68.596 43.4582C68.7395 43.5337 68.859 43.6478 68.9411 43.7876C69.0185 43.9423 69.0587 44.1128 69.0587 44.2857C69.0587 44.4586 69.0185 44.6292 68.9411 44.7838C68.859 44.9236 68.7395 45.0377 68.596 45.1133C68.4441 45.1857 68.278 45.2233 68.1097 45.2233C67.9414 45.2233 67.7752 45.1857 67.6234 45.1133C67.4823 45.0372 67.3654 44.9231 67.2861 44.7838C67.1978 44.6317 67.1543 44.4576 67.1606 44.2818C67.1553 44.1086 67.1988 43.9374 67.2861 43.7876C67.3654 43.6484 67.4823 43.5342 67.6234 43.4582C67.7752 43.3857 67.9414 43.3481 68.1097 43.3481C68.278 43.3481 68.4441 43.3857 68.596 43.4582ZM67.8116 43.9524C67.7715 43.9967 67.741 44.0488 67.7221 44.1056C67.7032 44.1623 67.6963 44.2223 67.7018 44.2818C67.6961 44.3426 67.7029 44.4038 67.7218 44.4618C67.7407 44.5198 67.7713 44.5733 67.8116 44.6191C67.8451 44.6566 67.8863 44.6865 67.9322 44.7067C67.9782 44.727 68.028 44.7373 68.0783 44.7368C68.1298 44.7374 68.1808 44.7272 68.228 44.707C68.2753 44.6867 68.3178 44.6568 68.3528 44.6191C68.4285 44.5237 68.465 44.4031 68.4548 44.2818C68.4645 44.163 68.428 44.0449 68.3528 43.9524C68.3178 43.9147 68.2753 43.8848 68.228 43.8645C68.1808 43.8442 68.1298 43.8341 68.0783 43.8347C67.9876 43.8421 67.9033 43.8843 67.843 43.9524H67.8116Z" fill="#181818"/>
<path id="Vector_40" d="M73.671 43.3718L73.2004 45.1995H72.5729L72.2434 43.9758L71.8748 45.1995H71.2472L70.7766 43.3718H71.3414L71.5845 44.6896L71.9218 43.3718H72.5258L72.8709 44.6896L73.1141 43.3718H73.671Z" fill="#181818"/>
<path id="Vector_41" d="M77.2322 44.3837H75.9615C75.958 44.4935 75.9974 44.6004 76.0713 44.6817C76.103 44.7135 76.141 44.7383 76.1829 44.7546C76.2248 44.7708 76.2696 44.778 76.3144 44.7759C76.3873 44.7765 76.4585 44.7546 76.5184 44.7131C76.5727 44.6723 76.6114 44.6142 76.6282 44.5484H77.2243C77.1955 44.6757 77.1381 44.7947 77.0566 44.8966C76.9751 44.9985 76.8715 45.0806 76.7537 45.1367C76.6228 45.1945 76.4811 45.2239 76.338 45.223C76.1721 45.2246 76.0081 45.187 75.8595 45.1132C75.7244 45.0345 75.6133 44.9206 75.5379 44.7837C75.456 44.6293 75.4155 44.4564 75.4202 44.2817C75.4176 44.1106 75.4552 43.9414 75.5301 43.7875C75.6062 43.6486 75.7205 43.5343 75.8595 43.4581C76.0081 43.3842 76.1721 43.3466 76.338 43.3483C76.504 43.3457 76.6682 43.3834 76.8165 43.4581C76.9507 43.5308 77.062 43.6395 77.1381 43.7718C77.2154 43.9135 77.2533 44.0733 77.2479 44.2346C77.25 44.2848 77.2447 44.335 77.2322 44.3837ZM76.5811 43.8503C76.5131 43.7871 76.4229 43.7533 76.3301 43.7562C76.2351 43.7537 76.1426 43.7873 76.0713 43.8503C76.0028 43.9224 75.9636 44.0175 75.9615 44.117H76.6753C76.6793 44.0684 76.673 44.0195 76.6568 43.9735C76.6405 43.9276 76.6148 43.8856 76.5811 43.8503Z" fill="#181818"/>
<path id="Vector_42" d="M80.0168 43.4504C80.1218 43.3824 80.2446 43.3469 80.3697 43.3484V43.9524H80.2129C80.0905 43.9444 79.969 43.9775 79.8677 44.0465C79.8227 44.0863 79.7878 44.1362 79.7659 44.1921C79.7441 44.2481 79.736 44.3084 79.7422 44.3681V45.1996H79.1853V43.372H79.7187V43.7171C79.7933 43.6039 79.896 43.5121 80.0168 43.4504Z" fill="#181818"/>
<path id="Vector_43" d="M83.9702 44.3837H82.6994C82.696 44.4935 82.7354 44.6004 82.8093 44.6818C82.841 44.7136 82.879 44.7384 82.9209 44.7546C82.9627 44.7708 83.0076 44.778 83.0524 44.7759C83.1252 44.7765 83.1965 44.7546 83.2564 44.7131C83.3107 44.6723 83.3494 44.6142 83.3662 44.5484H83.9545C83.935 44.6757 83.8807 44.7952 83.7976 44.8936C83.7178 44.9991 83.6125 45.0828 83.4917 45.1367C83.3605 45.1939 83.219 45.2233 83.0759 45.223C82.91 45.2247 82.7461 45.187 82.5975 45.1132C82.4602 45.0347 82.3465 44.921 82.268 44.7837C82.1907 44.6291 82.1505 44.4585 82.1505 44.2856C82.1505 44.1127 82.1907 43.9422 82.268 43.7876C82.3442 43.6486 82.4585 43.5343 82.5975 43.4581C82.7466 43.3859 82.9102 43.3484 83.0759 43.3484C83.2417 43.3484 83.4053 43.3859 83.5544 43.4581C83.6886 43.5309 83.8 43.6395 83.876 43.7719C83.9501 43.9148 83.9878 44.0737 83.9858 44.2347C83.9841 44.2846 83.9788 44.3344 83.9702 44.3837ZM83.327 43.8503C83.2581 43.7885 83.1685 43.7549 83.0759 43.7562C82.9945 43.7629 82.9174 43.7959 82.8563 43.8503C82.7878 43.9225 82.7487 44.0175 82.7465 44.117H83.4603C83.4594 44.0654 83.447 44.0147 83.4239 43.9685C83.4008 43.9224 83.3677 43.882 83.327 43.8503Z" fill="#181818"/>
<path id="Vector_44" d="M86.9744 43.4424C87.0734 43.5029 87.1504 43.5936 87.194 43.7012V42.7756H87.7588V45.1994H87.194V44.87C87.1504 44.9776 87.0734 45.0683 86.9744 45.1288C86.8655 45.1939 86.7403 45.2265 86.6135 45.2229C86.4701 45.2243 86.329 45.1863 86.2057 45.1131C86.084 45.0302 85.9866 44.9166 85.9233 44.7837C85.8562 44.6262 85.8216 44.4568 85.8216 44.2856C85.8216 44.1144 85.8562 43.945 85.9233 43.7875C85.9866 43.6546 86.084 43.5409 86.2057 43.4581C86.329 43.3848 86.4701 43.3469 86.6135 43.3482C86.7403 43.3447 86.8655 43.3773 86.9744 43.4424ZM86.5037 43.9601C86.4283 44.0499 86.3892 44.1645 86.3939 44.2817C86.388 44.4014 86.4272 44.5189 86.5037 44.6111C86.5814 44.6868 86.6855 44.7292 86.794 44.7292C86.9024 44.7292 87.0065 44.6868 87.0842 44.6111C87.1249 44.5669 87.1564 44.515 87.1766 44.4584C87.1968 44.4018 87.2054 44.3417 87.2018 44.2817C87.2048 44.2229 87.1959 44.1642 87.1756 44.1089C87.1554 44.0537 87.1243 44.0031 87.0842 43.9601C87.0065 43.8844 86.9024 43.842 86.794 43.842C86.6855 43.842 86.5814 43.8844 86.5037 43.9601Z" fill="#181818"/>
<path id="Vector_45" d="M93.626 43.4581C93.7476 43.5409 93.8451 43.6546 93.9084 43.7875C93.9806 43.942 94.0155 44.1112 94.0104 44.2817C94.0161 44.4547 93.9812 44.6266 93.9084 44.7837C93.8451 44.9166 93.7476 45.0302 93.626 45.1131C93.5026 45.1863 93.3616 45.2243 93.2181 45.2229C93.0914 45.2265 92.9662 45.1939 92.8573 45.1288C92.7582 45.0683 92.6812 44.9776 92.6377 44.87V45.1994H92.0807V42.7756H92.6377V43.7012C92.6812 43.5936 92.7582 43.5029 92.8573 43.4424C92.9662 43.3773 93.0914 43.3447 93.2181 43.3482C93.3616 43.3469 93.5026 43.3848 93.626 43.4581ZM92.7475 43.9601C92.6721 44.0499 92.6329 44.1645 92.6377 44.2817C92.6317 44.4014 92.6709 44.5189 92.7475 44.6111C92.7852 44.6496 92.8304 44.6799 92.8803 44.7002C92.9303 44.7204 92.9838 44.7302 93.0377 44.7288C93.0918 44.7317 93.1458 44.7226 93.1959 44.7023C93.2461 44.682 93.2912 44.6508 93.3279 44.6111C93.3677 44.5666 93.3979 44.5144 93.4168 44.4577C93.4357 44.4011 93.4428 44.3412 93.4378 44.2817C93.4422 44.2234 93.4347 44.1649 93.4158 44.1096C93.397 44.0543 93.3671 44.0035 93.3279 43.9601C93.2922 43.9238 93.2494 43.8953 93.2022 43.8764C93.1549 43.8575 93.1043 43.8486 93.0534 43.8503C92.9975 43.8456 92.9413 43.853 92.8885 43.872C92.8358 43.8909 92.7877 43.921 92.7475 43.9601Z" fill="#181818"/>
<path id="Vector_46" d="M96.3635 43.3718L96.8028 44.4935L97.2185 43.3718H97.8382L96.693 46.0701H96.0733L96.5047 45.1289L95.7203 43.3718H96.3635Z" fill="#181818"/>
<path id="Vector_47" d="M103.533 44.8856C103.465 44.9899 103.37 45.074 103.258 45.1288C103.119 45.1946 102.966 45.2269 102.811 45.2229C102.582 45.2314 102.356 45.1654 102.168 45.0346C102.086 44.9714 102.019 44.8907 101.971 44.7986C101.924 44.7064 101.897 44.6049 101.894 44.5013H102.466C102.47 44.5789 102.504 44.6521 102.56 44.7052C102.587 44.7315 102.619 44.7521 102.654 44.7656C102.689 44.7791 102.727 44.7852 102.764 44.7836C102.796 44.7857 102.827 44.7813 102.857 44.7704C102.887 44.7596 102.914 44.7428 102.937 44.7209C102.958 44.7007 102.974 44.6763 102.985 44.6493C102.996 44.6222 103.001 44.5931 103 44.564C103.001 44.538 102.996 44.5119 102.987 44.4876C102.978 44.4633 102.963 44.4413 102.945 44.4228C102.904 44.3802 102.857 44.3456 102.803 44.3208L102.56 44.2346L102.207 44.0855C102.111 44.0351 102.027 43.9625 101.964 43.8737C101.893 43.7671 101.858 43.6409 101.862 43.5129C101.86 43.3865 101.898 43.2627 101.972 43.1599C102.044 43.0554 102.145 42.9738 102.262 42.9246C102.396 42.8693 102.541 42.8426 102.686 42.8462C102.904 42.8352 103.12 42.8988 103.298 43.0266C103.376 43.0874 103.439 43.1646 103.484 43.2527C103.529 43.3408 103.553 43.4377 103.557 43.5364H102.953C102.943 43.4665 102.913 43.4009 102.866 43.3482C102.816 43.3057 102.752 43.2834 102.686 43.2854C102.657 43.2835 102.629 43.2874 102.602 43.2969C102.575 43.3063 102.55 43.3211 102.529 43.3404C102.492 43.3796 102.471 43.4315 102.471 43.4855C102.471 43.5394 102.492 43.5913 102.529 43.6306C102.565 43.6724 102.611 43.7047 102.662 43.7247L102.898 43.8188C103.025 43.8554 103.149 43.9053 103.266 43.9679C103.363 44.0183 103.446 44.0908 103.509 44.1797C103.579 44.2898 103.615 44.4181 103.611 44.5483C103.617 44.6658 103.589 44.7825 103.533 44.8856Z" fill="#181818"/>
<path id="Vector_48" d="M107.392 43.3718V45.1995H106.835V44.87C106.783 44.9747 106.701 45.0619 106.6 45.121C106.49 45.1912 106.362 45.2267 106.231 45.223C106.138 45.2271 106.046 45.2102 105.96 45.1735C105.874 45.1368 105.798 45.0814 105.737 45.0112C105.604 44.8478 105.537 44.6409 105.549 44.4308V43.3718H106.106V44.3602C106.098 44.4655 106.131 44.5699 106.2 44.6504C106.234 44.686 106.276 44.7142 106.322 44.7331C106.368 44.752 106.417 44.7612 106.467 44.7602C106.516 44.7622 106.566 44.7534 106.612 44.7345C106.658 44.7155 106.699 44.6868 106.733 44.6504C106.804 44.5646 106.84 44.4556 106.835 44.3445V43.3718H107.392Z" fill="#181818"/>
<path id="Vector_49" d="M111.094 43.5601C111.222 43.7256 111.286 43.9316 111.275 44.1405V45.1994H110.718V44.2033C110.722 44.1505 110.715 44.0974 110.697 44.0475C110.68 43.9976 110.652 43.9518 110.616 43.913C110.583 43.88 110.544 43.8539 110.501 43.8364C110.458 43.8189 110.412 43.8102 110.365 43.8111C110.314 43.8094 110.263 43.8183 110.216 43.8372C110.169 43.8561 110.126 43.8846 110.09 43.9209C110.02 44.0066 109.983 44.1157 109.988 44.2268V45.1994H109.432V43.3718H109.988V43.7012C110.041 43.5944 110.122 43.5046 110.224 43.4424C110.336 43.3782 110.463 43.3457 110.592 43.3483C110.687 43.3441 110.781 43.361 110.867 43.3976C110.954 43.4342 111.032 43.4897 111.094 43.5601Z" fill="#181818"/>
<path id="Vector_50" d="M114.499 43.5208C114.639 43.6391 114.733 43.8029 114.765 43.9836H114.232C114.217 43.9144 114.182 43.8515 114.13 43.8032C114.07 43.7617 113.999 43.7398 113.926 43.7404C113.877 43.7271 113.826 43.7271 113.777 43.7404C113.761 43.7557 113.749 43.774 113.741 43.7943C113.733 43.8146 113.729 43.8363 113.73 43.8581C113.73 43.8863 113.74 43.9136 113.757 43.9361C113.774 43.9587 113.797 43.9753 113.824 43.9836C113.913 44.0273 114.008 44.0564 114.107 44.0699C114.223 44.0974 114.339 44.1314 114.452 44.1718C114.541 44.2047 114.62 44.2618 114.679 44.3366C114.751 44.4219 114.787 44.5313 114.781 44.6425C114.783 44.7434 114.753 44.8422 114.695 44.9249C114.632 45.0078 114.548 45.0727 114.452 45.1131C114.293 45.1724 114.123 45.1947 113.954 45.1784C113.786 45.1621 113.623 45.1076 113.479 45.019C113.404 44.9633 113.341 44.8928 113.293 44.8119C113.246 44.731 113.216 44.6413 113.204 44.5484H113.746C113.747 44.5844 113.757 44.6195 113.775 44.6508C113.793 44.6822 113.818 44.7089 113.848 44.7288C113.911 44.7752 113.989 44.7975 114.067 44.7915C114.116 44.8049 114.168 44.8049 114.216 44.7915C114.232 44.7763 114.244 44.7579 114.252 44.7376C114.26 44.7174 114.264 44.6957 114.263 44.6739C114.264 44.6435 114.255 44.6138 114.238 44.5886C114.222 44.5633 114.197 44.5438 114.169 44.5327C114.075 44.4966 113.978 44.4677 113.879 44.4464C113.764 44.4271 113.652 44.3982 113.542 44.3601C113.455 44.3224 113.377 44.2662 113.314 44.1954C113.247 44.1109 113.214 44.0048 113.22 43.8973C113.218 43.8206 113.234 43.7445 113.267 43.6751C113.3 43.6056 113.348 43.5448 113.408 43.4973C113.564 43.3881 113.752 43.3355 113.942 43.3482C114.143 43.3321 114.342 43.3939 114.499 43.5208Z" fill="#181818"/>
<path id="Vector_51" d="M118.405 43.56C118.533 43.7256 118.597 43.9316 118.585 44.1405V45.1994H118.029V44.2032C118.032 44.1504 118.025 44.0974 118.008 44.0475C117.99 43.9975 117.963 43.9518 117.927 43.913C117.894 43.88 117.855 43.8539 117.811 43.8364C117.768 43.8188 117.722 43.8102 117.676 43.811C117.625 43.8094 117.574 43.8183 117.527 43.8372C117.48 43.8561 117.437 43.8846 117.401 43.9208C117.33 44.0066 117.294 44.1157 117.299 44.2268V45.1994H116.742V42.7756H117.299V43.7012C117.351 43.5944 117.433 43.5046 117.534 43.4424C117.646 43.3775 117.774 43.3449 117.903 43.3482C117.997 43.3441 118.091 43.361 118.178 43.3976C118.265 43.4342 118.342 43.4897 118.405 43.56Z" fill="#181818"/>
<path id="Vector_52" d="M120.641 42.6424C120.705 42.5838 120.789 42.5527 120.876 42.5561C120.965 42.5515 121.053 42.5825 121.119 42.6424C121.149 42.6689 121.173 42.7015 121.19 42.738C121.206 42.7745 121.215 42.8141 121.215 42.8542C121.215 42.8942 121.206 42.9339 121.19 42.9704C121.173 43.0069 121.149 43.0395 121.119 43.066C121.051 43.123 120.964 43.1512 120.876 43.1444C120.79 43.1499 120.706 43.1218 120.641 43.066C120.611 43.0395 120.586 43.0069 120.57 42.9704C120.554 42.9339 120.545 42.8942 120.545 42.8542C120.545 42.8141 120.554 42.7745 120.57 42.738C120.586 42.7015 120.611 42.6689 120.641 42.6424ZM121.158 43.3719V45.1995H120.601V43.3719H121.158Z" fill="#181818"/>
<path id="Vector_53" d="M124.845 43.5601C124.979 43.7227 125.046 43.9302 125.033 44.1405V45.1994H124.468V44.2033C124.475 44.0981 124.441 43.9943 124.374 43.913C124.34 43.8794 124.3 43.853 124.255 43.8355C124.211 43.8179 124.163 43.8096 124.115 43.8111C124.066 43.809 124.016 43.8178 123.97 43.8368C123.924 43.8557 123.883 43.8844 123.849 43.9209C123.812 43.9625 123.784 44.011 123.767 44.0635C123.749 44.1161 123.743 44.1716 123.747 44.2268V45.1994H123.182V43.3718H123.747V43.7012C123.799 43.5944 123.881 43.5046 123.982 43.4424C124.091 43.3785 124.216 43.3459 124.343 43.3483C124.437 43.3441 124.531 43.361 124.618 43.3976C124.705 43.4342 124.782 43.4897 124.845 43.5601Z" fill="#181818"/>
<path id="Vector_54" d="M128.767 44.3837H127.496C127.491 44.4924 127.527 44.5992 127.598 44.6817C127.63 44.7128 127.668 44.7371 127.71 44.7533C127.752 44.7694 127.797 44.7771 127.841 44.7759C127.917 44.7776 127.991 44.7557 128.053 44.7131C128.105 44.6719 128.142 44.6136 128.155 44.5484H128.751C128.728 44.6745 128.674 44.793 128.594 44.8935C128.514 44.9991 128.409 45.0827 128.288 45.1367C128.157 45.1939 128.016 45.2232 127.873 45.223C127.707 45.2256 127.542 45.1879 127.394 45.1132C127.255 45.037 127.141 44.9227 127.065 44.7837C126.987 44.6291 126.947 44.4585 126.947 44.2856C126.947 44.1127 126.987 43.9422 127.065 43.7875C127.141 43.6486 127.255 43.5343 127.394 43.4581C127.542 43.3834 127.707 43.3457 127.873 43.3483C128.039 43.3466 128.203 43.3842 128.351 43.4581C128.484 43.5303 128.593 43.6392 128.665 43.7718C128.745 43.9127 128.786 44.0726 128.783 44.2346C128.781 44.2846 128.776 44.3344 128.767 44.3837ZM128.116 43.8503C128.084 43.8192 128.045 43.7949 128.004 43.7788C127.962 43.7626 127.917 43.7549 127.873 43.7562C127.777 43.7521 127.684 43.7859 127.614 43.8503C127.577 43.8844 127.548 43.9257 127.527 43.9715C127.507 44.0174 127.497 44.0669 127.496 44.117H128.21C128.218 44.0682 128.213 44.0183 128.197 43.9718C128.18 43.9252 128.152 43.8835 128.116 43.8503Z" fill="#181818"/>
</g>
</g>
</svg>
