<svg width="30" height="25" viewBox="0 0 30 25" fill="none" xmlns="http://www.w3.org/2000/svg">
<g id="Frame" clip-path="url(#clip0_254_24512)">
<g id="Group">
<path id="Vector" d="M0 2.97673C0.143548 2.66697 0.385313 2.55364 0.73285 2.5612C1.45059 2.57631 2.16833 2.56875 2.88607 2.56875C2.98429 2.56875 3.09006 2.56875 3.22605 2.56875C3.22605 2.30432 3.22605 2.06256 3.22605 1.82079C3.22605 1.41281 3.2185 1.00484 3.22605 0.604412C3.23361 0.24932 3.43004 0.0453309 3.77758 0.00755515C3.85313 0 3.92868 0 4.00423 0C5.74192 0 7.4796 0 9.21729 0C9.82925 0 10.003 0.173769 10.003 0.800846C10.003 1.37504 10.003 1.94923 10.003 2.56875C10.1315 2.56875 10.2297 2.56875 10.3279 2.56875C10.8643 2.56875 11.4083 2.5612 11.9447 2.57631C12.2771 2.58386 12.5113 2.82563 12.5113 3.12783C12.5113 3.41493 12.2922 3.65669 11.9825 3.69447C11.8767 3.70958 11.7785 3.70202 11.6727 3.70202C8.29556 3.70202 4.91085 3.70202 1.5337 3.70202C1.41281 3.70202 1.29193 3.70202 1.15594 3.70202C1.15594 4.31399 1.15594 4.90329 1.15594 5.51526C10.0559 5.51526 18.9559 5.51526 27.871 5.51526C27.871 4.9184 27.871 4.3291 27.871 3.70202C27.735 3.70202 27.6216 3.70202 27.5008 3.70202C24.1085 3.70202 20.7238 3.70202 17.3315 3.70202C17.2257 3.70202 17.12 3.70958 17.0218 3.69447C16.712 3.64914 16.5005 3.39982 16.5156 3.11272C16.5307 2.81807 16.7573 2.58386 17.0671 2.57631C17.6035 2.5612 18.1399 2.56875 18.6839 2.56875C18.7821 2.56875 18.8879 2.56875 19.0239 2.56875C19.0239 2.33454 19.0239 2.14566 19.0239 1.94923C19.0239 1.55636 19.0239 1.15594 19.0239 0.76307C19.0239 0.203989 19.2128 0.0151103 19.7643 0.00755515C19.7718 0.00755515 19.7869 0.00755515 19.7945 0.00755515C21.5397 0.00755515 23.285 0.00755515 25.0378 0.00755515C25.6271 0.00755515 25.8008 0.181324 25.8008 0.76307C25.8008 1.35237 25.8008 1.94923 25.8008 2.57631C26.1937 2.57631 26.5564 2.57631 26.9266 2.57631C27.4177 2.57631 27.9087 2.56875 28.3998 2.57631C28.8154 2.58386 29.0269 2.79541 29.0269 3.21094C29.0345 4.14778 29.0269 5.07706 29.0269 6.0139C29.0269 6.44454 28.8078 6.66364 28.3847 6.66364C28.0447 6.6712 27.7123 6.66364 27.3572 6.66364C27.3572 11.4158 27.3572 16.1378 27.3572 20.8976C27.6896 20.8976 28.0145 20.8976 28.3318 20.8976C28.8305 20.9051 29.0345 21.1091 29.0345 21.6077C29.0345 22.4766 29.0345 23.3454 29.0345 24.2143C29.0345 24.8187 28.8607 24.9924 28.2638 24.9924C25.9822 24.9924 23.693 24.9924 21.4113 24.9924C14.5588 24.9924 7.6987 24.9924 0.846177 25C0.49864 25 0.219099 24.9244 0.0302206 24.6222C0.0302206 23.5041 0.0302206 22.3935 0.0302206 21.2753C0.211544 20.9655 0.491085 20.8598 0.838622 20.8824C1.12572 20.9051 1.41281 20.89 1.69991 20.89C1.69991 16.1151 1.69991 11.3932 1.69991 6.65609C1.39015 6.65609 1.0955 6.64098 0.800846 6.66364C0.423089 6.69386 0.166213 6.57298 0 6.26322C0 5.16772 0 4.07223 0 2.97673ZM2.84074 6.6712C2.84074 11.4234 2.84074 16.1454 2.84074 20.8673C10.6301 20.8673 18.4044 20.8673 26.1635 20.8673C26.1635 16.1227 26.1635 11.3932 26.1635 6.6712C18.3817 6.6712 10.6225 6.6712 2.84074 6.6712ZM27.871 22.0535C18.9408 22.0535 10.0484 22.0535 1.15594 22.0535C1.15594 22.6655 1.15594 23.2548 1.15594 23.8441C10.071 23.8441 18.971 23.8441 27.871 23.8441C27.871 23.2321 27.871 22.6503 27.871 22.0535ZM8.85464 1.15594C7.34361 1.15594 5.8628 1.15594 4.38199 1.15594C4.38199 1.63191 4.38199 2.09278 4.38199 2.55364C5.88546 2.55364 7.35872 2.55364 8.85464 2.55364C8.85464 2.08522 8.85464 1.63191 8.85464 1.15594ZM24.6374 1.15594C23.1263 1.15594 21.638 1.15594 20.1571 1.15594C20.1571 1.63191 20.1571 2.07767 20.1571 2.54609C21.6606 2.54609 23.1414 2.54609 24.6374 2.54609C24.6374 2.07767 24.6374 1.62436 24.6374 1.15594Z" fill="#181818"/>
<path id="Vector_2" d="M14.5214 2.57634C14.8387 2.57634 15.0729 2.81811 15.0805 3.13543C15.0805 3.45274 14.8085 3.71717 14.4987 3.70206C14.1965 3.69451 13.9396 3.42252 13.9547 3.12032C13.9547 2.81055 14.2116 2.56879 14.5214 2.57634Z" fill="#181818"/>
<path id="Vector_3" d="M13.4402 15.2995C13.3118 15.292 13.2211 15.2844 13.1305 15.2844C12.5714 15.2844 12.0123 15.2542 11.4608 15.292C10.8639 15.3373 10.5391 14.8387 10.879 14.2796C12.0803 12.285 13.2438 10.2678 14.4375 8.26569C14.5357 8.09192 14.7246 7.91815 14.9059 7.86526C15.2761 7.75194 15.5708 8.0617 15.5708 8.52256C15.5708 9.65583 15.5708 10.7891 15.5708 11.9224C15.5708 12.0282 15.5708 12.1264 15.5708 12.2548C15.6841 12.2624 15.7748 12.2699 15.8655 12.2699C16.4623 12.2699 17.0516 12.2699 17.6485 12.2699C18.1924 12.2775 18.4493 12.7081 18.1773 13.1765C17.6787 14.0454 17.1649 14.8991 16.6587 15.7604C15.9637 16.939 15.2761 18.1176 14.5811 19.2962C14.3695 19.6513 14.1504 19.7646 13.8482 19.6815C13.5762 19.606 13.4402 19.3793 13.4402 18.9864C13.4402 17.8607 13.4402 16.7426 13.4402 15.6169C13.4402 15.5186 13.4402 15.4204 13.4402 15.2995ZM14.5735 16.9466C14.5962 16.9541 14.6189 16.9617 14.634 16.9692C15.3215 15.7982 16.009 14.6196 16.7267 13.4032C16.145 13.4032 15.6086 13.4032 15.0722 13.4032C14.6415 13.4032 14.4375 13.1916 14.43 12.7534C14.4224 12.4135 14.43 12.0735 14.43 11.7335C14.43 11.3633 14.43 10.9931 14.43 10.6153C14.4073 10.6078 14.3846 10.6078 14.362 10.6002C13.6745 11.7713 12.9869 12.9423 12.2768 14.1512C12.8358 14.1512 13.3345 14.1512 13.8331 14.1512C14.3846 14.1512 14.5735 14.34 14.5735 14.8764C14.5735 15.5715 14.5735 16.259 14.5735 16.9466Z" fill="#181818"/>
<path id="Vector_4" d="M22.9596 14.3475C22.9596 14.5817 22.9672 14.763 22.9596 14.9519C22.9445 15.2767 22.733 15.4883 22.4308 15.5034C22.121 15.5185 21.8717 15.307 21.8415 14.9821C21.8188 14.7857 21.8415 14.5892 21.8415 14.3475C21.6451 14.3475 21.4713 14.355 21.2975 14.3475C20.9198 14.3324 20.6855 14.1133 20.6855 13.7884C20.6855 13.456 20.9122 13.2369 21.29 13.2217C21.4562 13.2142 21.6299 13.2217 21.8415 13.2217C21.8415 13.0253 21.8339 12.8515 21.8415 12.6778C21.8566 12.3 22.0984 12.0431 22.4308 12.0583C22.7557 12.0734 22.9672 12.3076 22.9748 12.6929C22.9748 12.8591 22.9748 13.0253 22.9748 13.2293C23.1939 13.2293 23.3827 13.2217 23.5641 13.2293C23.9116 13.2444 24.1534 13.4786 24.1458 13.7959C24.1458 14.0981 23.9116 14.3324 23.5792 14.355C23.3827 14.355 23.1939 14.3475 22.9596 14.3475Z" fill="#181818"/>
<path id="Vector_5" d="M6.62586 13.2143C6.99606 13.2143 7.35871 13.2067 7.72891 13.2143C8.10667 13.2219 8.34088 13.441 8.34088 13.7734C8.34088 14.1058 8.11422 14.34 7.73646 14.34C6.9885 14.3476 6.2481 14.3476 5.50014 14.34C5.12994 14.3325 4.88062 14.0982 4.88062 13.7809C4.88062 13.4485 5.12994 13.2294 5.5228 13.2143C5.53791 13.2143 5.56058 13.2143 5.57569 13.2143C5.92323 13.2143 6.27076 13.2143 6.62586 13.2143Z" fill="#181818"/>
</g>
</g>
<defs>
<clipPath id="clip0_254_24512">
<rect width="29.0118" height="25" fill="white"/>
</clipPath>
</defs>
</svg>
