<svg width="30" height="25" viewBox="0 0 30 25" fill="none" xmlns="http://www.w3.org/2000/svg">
<g id="Frame" clip-path="url(#clip0_254_24526)">
<g id="Group">
<path id="Vector" d="M12.4836 18.3197C12.1308 18.3197 11.8304 18.3197 11.53 18.3197C8.02532 18.3197 4.52064 18.3197 1.02074 18.3197C0.000330594 18.3197 -0.099803 18.2291 0.062318 17.2134C0.35795 15.3347 0.677424 13.4608 0.992129 11.5821C1.33544 9.52222 1.67399 7.46233 2.01731 5.40721C2.2891 3.79554 2.56566 2.18863 2.84221 0.57696C2.91851 0.143048 3.09493 0 3.52408 0C5.01654 0 6.50424 0 7.99671 0C14.0143 0 20.0366 0 26.0541 0C26.6788 0 26.8027 0.100133 26.9029 0.710471C27.7612 5.84589 28.6194 10.9861 29.4777 16.1215C29.554 16.5697 29.6255 17.0179 29.7018 17.4614C29.8067 18.0669 29.6065 18.3149 28.9914 18.3149C25.4056 18.3149 21.8199 18.3149 18.2342 18.3149C17.9242 18.3149 17.6095 18.3149 17.2471 18.3149C17.3997 18.9205 17.538 19.4927 17.6906 20.0553C17.7716 20.3557 17.7859 20.7515 17.9862 20.9184C18.1722 21.071 18.5632 20.9708 18.8636 20.9804C20.3847 21.0185 21.4814 21.6908 22.0726 23.1213C22.2014 23.4312 22.3444 23.7364 22.4732 24.0511C22.7116 24.6233 22.4732 24.9905 21.8485 24.9952C19.7171 25 17.5857 24.9952 15.459 24.9952C12.97 24.9952 10.4762 24.9952 7.98717 24.9952C7.21948 24.9952 6.99537 24.6567 7.29577 23.9605C7.42928 23.6506 7.55803 23.3406 7.69631 23.0307C8.24466 21.7862 9.20784 21.1186 10.5525 21.0042C10.8863 20.9756 11.2296 21.009 11.5634 20.9756C11.6683 20.966 11.8256 20.8611 11.8495 20.7706C12.0688 19.979 12.2643 19.178 12.4836 18.3197ZM11.6301 11.7442C10.2187 11.7442 8.85023 11.7442 7.45789 11.7442C7.2767 13.5562 7.0955 15.3538 6.91431 17.161C8.44016 17.161 9.92785 17.161 11.4442 17.161C11.5109 15.3586 11.5681 13.5705 11.6301 11.7442ZM17.1327 17.161C17.0707 15.3443 17.0135 13.5514 16.9515 11.7538C15.5401 11.7538 14.1621 11.7538 12.7745 11.7538C12.7173 13.5705 12.6553 15.3538 12.5981 17.161C14.1239 17.161 15.6069 17.161 17.1327 17.161ZM18.2818 17.1657C19.8172 17.1657 21.3002 17.1657 22.8165 17.1657C22.6353 15.349 22.4541 13.5466 22.2729 11.749C20.8662 11.749 19.4978 11.749 18.1007 11.749C18.1579 13.5609 18.2199 15.3443 18.2818 17.1657ZM23.422 11.749C23.6032 13.5705 23.7844 15.3681 23.9656 17.1657C25.4962 17.1657 26.9792 17.1657 28.4907 17.1657C28.1855 15.349 27.8851 13.5514 27.5847 11.749C26.1924 11.749 24.8287 11.749 23.422 11.749ZM5.76516 17.1657C5.94635 15.3395 6.12278 13.5514 6.30397 11.7442C4.89734 11.7442 3.53838 11.7442 2.15559 11.7442C1.85518 13.5514 1.55478 15.3538 1.24962 17.1657C2.75639 17.1657 4.24408 17.1657 5.76516 17.1657ZM8.65473 23.8222C12.7936 23.8222 16.9324 23.8222 21.0713 23.8222C20.8901 22.8734 20.0413 22.1581 19.0543 22.1438C17.9719 22.1295 16.8895 22.1438 15.8071 22.1438C14.1096 22.1438 12.4073 22.1343 10.7098 22.1438C9.69421 22.1486 8.84069 22.8591 8.65473 23.8222ZM12.9652 6.0843C12.9176 7.59107 12.8699 9.0597 12.8174 10.5379C14.205 10.5379 15.5401 10.5379 16.9086 10.5379C16.8561 9.03586 16.8085 7.56723 16.7608 6.0843C15.4829 6.0843 14.2479 6.0843 12.9652 6.0843ZM7.5771 10.5522C8.96466 10.5522 10.2998 10.5522 11.6683 10.5522C11.716 9.05493 11.7636 7.57677 11.8113 6.09384C10.5143 6.09384 9.2746 6.09384 8.02055 6.09384C7.8775 7.58154 7.72968 9.04539 7.5771 10.5522ZM18.0577 10.5474C19.4501 10.5474 20.7804 10.5474 22.1489 10.5474C21.9963 9.04539 21.8485 7.572 21.7007 6.08907C20.4276 6.08907 19.1878 6.08907 17.9099 6.08907C17.9624 7.58154 18.0101 9.05493 18.0577 10.5474ZM27.3892 10.5569C27.1365 9.04063 26.8886 7.56723 26.6406 6.08907C25.3723 6.08907 24.1325 6.08907 22.8546 6.08907C23.0072 7.59107 23.155 9.074 23.3028 10.5569C24.6856 10.5569 26.0064 10.5569 27.3892 10.5569ZM2.35585 10.5474C3.71958 10.5474 5.05946 10.5474 6.42795 10.5474C6.57576 9.05493 6.72358 7.58154 6.87616 6.07C5.87483 6.07 4.91164 6.07 3.94845 6.07C3.12354 6.07 3.12354 6.07 2.97573 6.89014C2.97096 6.91398 2.96142 6.93305 2.95665 6.95689C2.75639 8.14419 2.55612 9.33149 2.35585 10.5474ZM8.14452 4.88747C9.41288 4.88747 10.624 4.88747 11.8542 4.88747C11.8971 3.64772 11.9353 2.43658 11.9782 1.20637C10.8052 1.20637 9.66083 1.20637 8.51168 1.20637C8.39247 2.44135 8.2685 3.64772 8.14452 4.88747ZM13.0082 4.88747C14.2717 4.88747 15.4829 4.88747 16.7226 4.88747C16.6797 3.64295 16.6416 2.43181 16.5987 1.21114C15.4209 1.21114 14.2813 1.21114 13.1274 1.21114C13.0892 2.44612 13.0463 3.65249 13.0082 4.88747ZM17.7478 1.19207C17.7907 2.44612 17.8336 3.67156 17.8765 4.8827C19.1354 4.8827 20.3465 4.8827 21.5863 4.8827C21.4623 3.63342 21.3383 2.41751 21.2143 1.19207C20.0509 1.19207 18.9256 1.19207 17.7478 1.19207ZM22.3682 1.19207C22.4827 2.36983 22.5971 3.50944 22.702 4.65382C22.7211 4.86363 22.8165 4.91608 23.0167 4.91608C23.9799 4.90654 24.9431 4.91131 25.9063 4.91131C26.078 4.91131 26.2448 4.91131 26.4451 4.91131C26.2305 3.63818 26.0303 2.41751 25.8252 1.19207C24.6666 1.19207 23.5412 1.19207 22.3682 1.19207ZM3.91507 1.19683C3.71004 2.43658 3.50977 3.65249 3.30474 4.89224C4.56356 4.89224 5.76516 4.89224 6.99537 4.89224C7.11935 3.65249 7.23855 2.43658 7.36253 1.19683C6.1943 1.19683 5.07376 1.19683 3.91507 1.19683ZM16.7322 20.947C16.5176 20.103 16.3126 19.2876 16.0932 18.4722C16.0741 18.4007 15.9263 18.3292 15.831 18.3244C15.4257 18.3101 15.0204 18.3149 14.6103 18.3197C14.3099 18.3244 13.9189 18.2195 13.7329 18.3721C13.5327 18.5342 13.5184 18.9348 13.4373 19.2304C13.2847 19.7931 13.1464 20.3652 12.9986 20.947C14.2622 20.947 15.4781 20.947 16.7322 20.947Z" fill="#181818"/>
</g>
</g>
<defs>
<clipPath id="clip0_254_24526">
<rect width="29.7253" height="25" fill="white"/>
</clipPath>
</defs>
</svg>
