<svg width="41" height="41" viewBox="0 0 41 41" fill="none" xmlns="http://www.w3.org/2000/svg">
<path id="Vector" d="M0.959961 21.5291V19.8891C0.989047 19.8315 1.0125 19.7712 1.02997 19.7091C1.21173 18.3208 1.76664 17.0079 2.63559 15.9101C3.50454 14.8123 4.65501 13.9708 5.96442 13.4751C7.27383 12.9795 8.69315 12.8483 10.0712 13.0955C11.4493 13.3428 12.7345 13.9592 13.79 14.8791C13.8506 14.9433 13.9316 14.9844 14.0192 14.9953C14.1068 15.0063 14.1954 14.9864 14.27 14.9391C14.92 14.6291 15.59 14.3291 16.27 14.0291L25.18 10.0291C25.37 9.93906 25.53 9.88906 25.48 9.58906C25.2199 7.75548 25.6285 5.88954 26.6311 4.33245C27.6336 2.77536 29.1632 1.63116 30.94 1.10906C31.42 0.979062 31.94 0.899062 32.38 0.789062H33.95C34.0299 0.82316 34.114 0.846691 34.2 0.859062C35.2257 0.997657 36.2132 1.34085 37.1039 1.86829C37.9945 2.39572 38.7701 3.09666 39.3847 3.92951C39.9993 4.76237 40.4404 5.71018 40.6818 6.71672C40.9232 7.72326 40.96 8.76804 40.79 9.78906C40.5853 11.2487 39.9482 12.6136 38.9608 13.7079C37.9734 14.8023 36.681 15.5759 35.25 15.9291C33.839 16.3854 32.324 16.4103 30.8988 16.0006C29.4736 15.5908 28.2031 14.7651 27.25 13.6291C27.05 13.4091 26.87 13.1691 26.67 12.9291L15.87 17.8391C16.6195 19.6928 16.6195 21.7653 15.87 23.6191L16.1 23.7491L26.41 28.4091C26.66 28.5291 26.76 28.4091 26.91 28.2491C27.7397 27.1073 28.8729 26.221 30.1809 25.6907C31.4889 25.1605 32.9194 25.0074 34.31 25.2491C36.085 25.4967 37.7199 26.3504 38.9376 27.6655C40.1552 28.9805 40.8809 30.6761 40.9915 32.4649C41.1021 34.2538 40.591 36.0258 39.5446 37.4809C38.4982 38.936 36.981 39.9846 35.25 40.4491C34.8 40.5691 34.34 40.6491 33.89 40.7491H32.32L32.03 40.6691C30.2708 40.4198 28.6503 39.5751 27.4384 38.2758C26.2265 36.9766 25.4964 35.3013 25.37 33.5291C25.37 32.8991 25.37 32.2591 25.37 31.5891L25.23 31.5191L14.23 26.5191C13.97 26.3991 13.83 26.5191 13.66 26.6491C12.6731 27.4797 11.4941 28.0501 10.2303 28.3084C8.96656 28.5667 7.65826 28.5046 6.42462 28.1279C5.19099 27.7511 4.07124 27.0717 3.16742 26.1514C2.2636 25.2311 1.60441 24.0993 1.24997 22.8591C1.12997 22.4191 1.05996 21.9991 0.959961 21.5291Z" fill="#F4F4F4"/>
</svg>
