<svg width="36" height="36" viewBox="0 0 36 36" fill="none" xmlns="http://www.w3.org/2000/svg">
<path d="M18 9C18.3978 9 18.7794 8.84196 19.0607 8.56066C19.342 8.27936 19.5 7.89782 19.5 7.5V4.5C19.5 4.10218 19.342 3.72064 19.0607 3.43934C18.7794 3.15804 18.3978 3 18 3C17.6022 3 17.2206 3.15804 16.9393 3.43934C16.658 3.72064 16.5 4.10218 16.5 4.5V7.5C16.5 7.89782 16.658 8.27936 16.9393 8.56066C17.2206 8.84196 17.6022 9 18 9Z" fill="#FF860D"/>
<path d="M31.5 16.5H28.5C28.1022 16.5 27.7206 16.658 27.4393 16.9393C27.158 17.2206 27 17.6022 27 18C27 18.3978 27.158 18.7794 27.4393 19.0607C27.7206 19.342 28.1022 19.5 28.5 19.5H31.5C31.8978 19.5 32.2794 19.342 32.5607 19.0607C32.842 18.7794 33 18.3978 33 18C33 17.6022 32.842 17.2206 32.5607 16.9393C32.2794 16.658 31.8978 16.5 31.5 16.5Z" fill="#FF860D"/>
<path d="M9 18C9 17.6022 8.84196 17.2206 8.56066 16.9393C8.27936 16.658 7.89782 16.5 7.5 16.5H4.5C4.10218 16.5 3.72064 16.658 3.43934 16.9393C3.15804 17.2206 3 17.6022 3 18C3 18.3978 3.15804 18.7794 3.43934 19.0607C3.72064 19.342 4.10218 19.5 4.5 19.5H7.5C7.89782 19.5 8.27936 19.342 8.56066 19.0607C8.84196 18.7794 9 18.3978 9 18Z" fill="#FF860D"/>
<path d="M9.3301 7.49882C9.0377 7.22233 8.64744 7.07333 8.24517 7.08458C7.84291 7.09583 7.46159 7.26642 7.1851 7.55882C6.90861 7.85122 6.75961 8.24148 6.77086 8.64375C6.78211 9.04601 6.9527 9.42733 7.2451 9.70382L9.4051 11.7888C9.55005 11.9288 9.72172 12.0381 9.90985 12.1103C10.098 12.1824 10.2987 12.216 10.5001 12.2088C10.7022 12.2081 10.902 12.1665 11.0876 12.0866C11.2732 12.0067 11.4407 11.8901 11.5801 11.7438C11.8595 11.4628 12.0163 11.0826 12.0163 10.6863C12.0163 10.29 11.8595 9.90987 11.5801 9.62882L9.3301 7.49882Z" fill="#FF860D"/>
<path d="M25.4999 12.2101C25.8861 12.2086 26.2569 12.0581 26.5349 11.7901L28.6949 9.70511C28.9584 9.42979 29.1072 9.06449 29.1112 8.68341C29.1151 8.30234 28.9738 7.93405 28.716 7.65336C28.4583 7.37267 28.1033 7.20063 27.7233 7.17216C27.3433 7.1437 26.9666 7.26095 26.6699 7.50011L24.5099 9.63011C24.2305 9.91115 24.0737 10.2913 24.0737 10.6876C24.0737 11.0839 24.2305 11.4641 24.5099 11.7451C24.7696 12.0192 25.1232 12.1852 25.4999 12.2101Z" fill="#FF860D"/>
<path d="M18 27C17.6022 27 17.2206 27.158 16.9393 27.4393C16.658 27.7206 16.5 28.1022 16.5 28.5V31.5C16.5 31.8978 16.658 32.2794 16.9393 32.5607C17.2206 32.842 17.6022 33 18 33C18.3978 33 18.7794 32.842 19.0607 32.5607C19.342 32.2794 19.5 31.8978 19.5 31.5V28.5C19.5 28.1022 19.342 27.7206 19.0607 27.4393C18.7794 27.158 18.3978 27 18 27Z" fill="#FF860D"/>
<path d="M26.5951 24.2101C26.3086 23.9336 25.9241 23.7823 25.5261 23.7893C25.128 23.7963 24.7491 23.9612 24.4726 24.2476C24.1961 24.5341 24.0447 24.9186 24.0517 25.3166C24.0588 25.7147 24.2236 26.0936 24.5101 26.3701L26.6701 28.5001C26.9481 28.7682 27.3189 28.9186 27.7051 28.9201C27.9061 28.9213 28.1052 28.8821 28.2908 28.8048C28.4763 28.7275 28.6444 28.6137 28.7851 28.4701C28.9257 28.3307 29.0373 28.1648 29.1134 27.982C29.1896 27.7992 29.2288 27.6032 29.2288 27.4051C29.2288 27.2071 29.1896 27.0111 29.1134 26.8283C29.0373 26.6455 28.9257 26.4796 28.7851 26.3401L26.5951 24.2101Z" fill="#FF860D"/>
<path d="M9.40497 24.2101L7.24497 26.2951C7.10437 26.4345 6.99278 26.6004 6.91663 26.7832C6.84048 26.966 6.80127 27.162 6.80127 27.3601C6.80127 27.5581 6.84048 27.7541 6.91663 27.9369C6.99278 28.1197 7.10437 28.2856 7.24497 28.4251C7.38566 28.5686 7.55376 28.6824 7.73928 28.7597C7.92481 28.837 8.12398 28.8762 8.32497 28.8751C8.69474 28.8782 9.05264 28.7447 9.32997 28.5001L11.49 26.4151C11.7764 26.1386 11.9413 25.7596 11.9483 25.3616C11.9553 24.9635 11.804 24.579 11.5275 24.2926C11.251 24.0061 10.872 23.8413 10.474 23.8342C10.0759 23.8272 9.6914 23.9786 9.40497 24.2551V24.2101Z" fill="#FF860D"/>
<path d="M18 12C16.8133 12 15.6533 12.3519 14.6666 13.0112C13.6799 13.6705 12.9109 14.6075 12.4567 15.7039C12.0026 16.8003 11.8838 18.0067 12.1153 19.1705C12.3468 20.3344 12.9182 21.4035 13.7574 22.2426C14.5965 23.0818 15.6656 23.6532 16.8295 23.8847C17.9933 24.1162 19.1997 23.9974 20.2961 23.5433C21.3925 23.0892 22.3295 22.3201 22.9888 21.3334C23.6481 20.3467 24 19.1867 24 18C24 16.4087 23.3679 14.8826 22.2426 13.7574C21.1174 12.6321 19.5913 12 18 12Z" fill="#FF860D"/>
</svg>
